<?xml version="1.0" encoding="utf-8"?>
<!-- Generator: Adobe Illustrator 26.1.0, SVG Export Plug-In . SVG Version: 6.00 Build 0)  -->
<svg version="1.1" id="レイヤー_1" xmlns="http://www.w3.org/2000/svg" xmlns:xlink="http://www.w3.org/1999/xlink" x="0px"
	 y="0px" width="54px" height="58px" viewBox="0 0 54 58" style="enable-background:new 0 0 54 58;" xml:space="preserve">
<style type="text/css">
	.st0{fill:none;stroke:#EC6D88;stroke-width:2;stroke-linejoin:round;}
	.st1{fill:none;stroke:#2861A3;stroke-width:2.9862;stroke-linecap:round;stroke-linejoin:round;}
	.st2{fill:none;stroke:#218A6E;stroke-width:2.9862;stroke-linecap:round;stroke-linejoin:round;}
	.st3{fill:none;stroke:#EC6D88;stroke-width:2.9862;stroke-linejoin:round;}
</style>
<path class="st0" d="M67.4,35c1.2-1,4.8-1.3,6-0.4c1.2,0.8,2.6,4.7,2.4,5.1c-0.3,0.6-2.2,1.3-2.2,1.3s0.9,2.6,2.5,4.4
	c1.6,1.8,4.9,3.2,4.9,3.2s1.1-2.2,1.8-2.2c3-0.1,4.8,1.6,5.2,2.3c0.4,0.7,0.6,4.3-0.2,5.4c-0.9,1-8.2,2.9-15.6-5.2
	C64.7,41,66.7,35.5,67.4,35z"/>
<path class="st1" d="M31.2,9.2c0,0,3,0,4.4,1.4c1.4,1.4,1.6,4.2,1.6,4.2"/>
<path class="st2" d="M30.3,2.4c0,0,5-1,9.5,3c4.5,4,4.4,10.3,4.4,10.3"/>
<path class="st3" d="M11.5,4c1.8-1.4,7.1-1.9,9-0.7c1.8,1.2,3.8,7.1,3.5,7.7c-0.4,0.9-3.3,2-3.3,2s1.3,4,3.7,6.6
	c2.4,2.6,7.3,4.8,7.3,4.8s1.6-3.3,2.6-3.3c4.5-0.2,7.2,2.4,7.8,3.4c0.6,1,1,6.5-0.4,8c-1.3,1.5-12.2,4.3-23.3-7.7
	C7.5,13.1,10.5,4.8,11.5,4z"/>
<g>
	<path d="M8.6,47.2h4.9v2.7h-1.5v-1.7H8.6v2.4H7.1v-2.4H3.6v1.7H2.1v-2.7h5v-0.5H3v-1.1h9.8v1.1H8.6V47.2z M8.6,55.2
		c0,0.5,0.2,0.5,0.8,0.5h2.1c0.5,0,1,0,1.2-1.4c0.5,0.4,0.7,0.4,1.3,0.6c-0.3,1.9-1.2,2-2.3,2H8.9c-0.9,0-1.8,0-1.8-1.4V55H4.8v0.9
		H3.4v-5h8.9v4H8.6V55.2z M6.6,48.6v0.7H4.1v-0.7H6.6z M6.6,49.7v0.7H4.1v-0.7H6.6z M7.1,52H4.8v0.5h2.3V52z M7.1,53.4H4.8v0.6h2.3
		V53.4z M8.6,52.5h2.2V52H8.6V52.5z M8.6,53.9h2.2v-0.6H8.6V53.9z M11.6,48.6v0.7H9.1v-0.7H11.6z M11.6,49.7v0.7H9.1v-0.7H11.6z"/>
	<path d="M19.8,47.5v1.2h-5.2v-1.2H19.8z M19.2,52.6v4.2h-1.3v-0.5h-1.4v0.7H15v-4.3H19.2z M19,45.8V47h-3.8v-1.2H19z M19.1,49.2
		v1.2h-3.9v-1.2H19.1z M19.1,50.9v1.2h-3.9v-1.2H19.1z M16.5,53.8V55h1.4v-1.2H16.5z M26.1,46.5c0,0.1,0.1,0.1,0.1,0.1
		c0,0.1-0.1,0.1-0.2,0.1c-0.1,0-0.2-0.1-0.3-0.1c-0.3,0.1-1.1,0.4-2,0.5v1.7h2.7v1.3h-2.7v1.6h2.2v5.2h-1.5v-0.7h-2.7v0.7h-1.5v-5.2
		h2.1v-1.6h-2.7v-1.3h2.7v-1.4c-0.6,0.1-1.6,0.2-2.2,0.2c0-0.3-0.2-0.9-0.4-1.3c2.3,0.1,4.5-0.4,5.5-0.9L26.1,46.5z M21.6,54.9h2.7
		v-1.8h-2.7V54.9z"/>
	<path d="M34,55.3c0,1.2-0.2,1.7-2.8,1.6c-0.1-0.5-0.2-1.1-0.5-1.6c0.2,0,0.6,0.1,1.1,0.1c0.6,0,0.7-0.2,0.7-0.8v-3.5h-5v-1.5h5.9
		c-0.9-0.4-1.6-0.7-2.9-1.1l0.9-1.2c0.6,0.2,0.7,0.2,1.9,0.7c0.7-0.4,1.2-0.7,1.5-0.9h-6v-1.4h8.2l0.7,0.8c-0.8,0.7-2.2,1.7-2.9,2.1
		c0.5,0.3,0.6,0.3,0.7,0.4c-0.1,0.1-0.4,0.3-0.7,0.5h3.6l0.8,0.8c-0.7,1.2-2.1,2.9-2.9,3.7c-0.3-0.3-0.8-0.7-1.2-0.9
		c0.7-0.6,1.5-1.6,1.7-2H34V55.3z"/>
	<path d="M41.9,52.8c0.1,0,0.2,0.1,0.2,0.2c0,0.1-0.1,0.2-0.3,0.2c-0.1,1.1-0.3,1.9-0.7,3c-0.4-0.2-0.9-0.3-1.3-0.3
		c0.5-1,0.7-2.5,0.7-3.3L41.9,52.8z M45.2,47.1c0.1,0,0.2,0.1,0.2,0.2c0,0.1-0.2,0.1-0.4,0.1c-0.1,0.2-0.7,1-0.8,1.2
		c-0.2,0.3-0.6,0.9-1.4,1.8c0.2,0,1-0.1,1.2-0.1c-0.2-0.6-0.2-0.7-0.3-0.8l1.3-0.3c1.2-1.6,1.7-3.1,1.9-3.8l1.5,0.5
		c0.1,0,0.2,0.1,0.2,0.2c0,0.1-0.2,0.2-0.4,0.2c-0.2,0.6-0.4,0.9-0.4,1.1h3.6c0,3.1-0.1,6.4-0.5,7.8c-0.4,1.5-1.1,1.9-3,1.8
		c0-0.3-0.1-0.8-0.7-1.7c0.2,0.1,0.7,0.2,1.1,0.2c0.8,0,1.1-0.4,1.3-2c0.2-1.6,0.2-3.9,0.2-4.6H47c-0.4,0.7-0.5,0.9-0.9,1.5
		c-0.3-0.3-0.7-0.5-1-0.7c0.3,0.8,0.5,1.7,0.6,2.3c-0.7,0.2-0.9,0.3-1.3,0.4c0-0.2,0-0.3-0.1-0.7l-0.7,0.1v5.3h-1.4v-5.1
		c-0.2,0-1.3,0.2-1.5,0.2c0,0.2-0.1,0.3-0.2,0.3c-0.1,0-0.2-0.2-0.2-0.3L40,50.7c0.4,0,0.6-0.1,1.1-0.1c0.3-0.4,0.5-0.6,0.7-0.9
		c-0.5-0.5-0.6-0.6-1.8-1.6l0.9-1.2c0.3,0.3,0.4,0.3,0.6,0.5c0.8-1.3,1-1.8,1.1-2.2l1.2,0.6c0.1,0,0.2,0.1,0.2,0.2
		c0,0.1-0.1,0.1-0.4,0.1c-0.4,0.8-1,1.6-1.2,2c0.1,0.1,0.2,0.1,0.4,0.4c0.9-1.3,1.1-1.6,1.3-2L45.2,47.1z M45.2,52.4
		c0.1,0.9,0.3,1.6,0.7,2.7c-0.2,0.1-0.9,0.2-1.3,0.5c-0.2-0.5-0.5-1.8-0.6-2.8L45.2,52.4z M47.6,50c0.6,1,0.9,1.8,1.2,2.8
		c-1,0.4-1.1,0.5-1.3,0.6c-0.3-1-0.8-2.1-1.2-2.9L47.6,50z"/>
</g>
</svg>
