<svg width="123" height="122" viewBox="0 0 123 122" fill="none" xmlns="http://www.w3.org/2000/svg">
<rect x="0.765625" width="122" height="122" rx="24" fill="#FFE600"/>
<path d="M38.3056 75.82H36.2356C36.2806 76.09 36.3406 76.825 36.3406 77.14C36.3406 77.395 36.3406 77.83 36.3256 78.355C36.0256 78.37 35.7256 78.385 35.4556 78.385C34.9156 78.385 34.2706 78.37 33.3856 78.265L33.4156 80.08C33.9256 80.14 34.5106 80.155 35.5156 80.155C35.7556 80.155 36.0256 80.14 36.3106 80.125C36.3106 80.545 36.3106 80.965 36.3106 81.385C36.3106 81.73 36.3106 82.09 36.3256 82.45C34.4806 83.245 32.9806 84.61 32.9806 85.915C32.9806 87.505 35.0356 88.765 36.4906 88.765C37.4806 88.765 38.1406 88.27 38.1406 86.41C38.1406 85.9 38.1106 84.73 38.0806 83.545C38.9956 83.275 39.9706 83.125 40.9006 83.125C42.2056 83.125 43.1056 83.725 43.1056 84.745C43.1056 85.84 42.1456 86.44 40.9306 86.665C40.4056 86.755 39.7606 86.77 39.0856 86.77L39.7756 88.705C40.3906 88.66 41.0506 88.615 41.7406 88.465C44.1256 87.865 45.0556 86.53 45.0556 84.76C45.0556 82.69 43.2406 81.49 40.9306 81.49C40.1056 81.49 39.0706 81.625 38.0506 81.88C38.0506 81.685 38.0506 81.505 38.0506 81.325C38.0506 80.89 38.0506 80.425 38.0656 79.975C39.0406 79.855 40.0756 79.705 40.9306 79.51L40.8856 77.65C40.1056 77.875 39.1156 78.07 38.1256 78.19C38.1406 77.815 38.1556 77.455 38.1706 77.125C38.2006 76.735 38.2606 76.09 38.3056 75.82ZM42.5806 77.44L41.7556 78.895C42.6856 79.345 44.6506 80.47 45.3706 81.085L46.2706 79.555C45.4756 78.985 43.7356 77.995 42.5806 77.44ZM34.8256 85.84C34.8256 85.315 35.4406 84.7 36.3556 84.205C36.3856 85.015 36.4006 85.705 36.4006 86.08C36.4006 86.59 36.1906 86.71 35.9206 86.71C35.5306 86.71 34.8256 86.305 34.8256 85.84ZM52.0606 77.23V78.04H49.7656V77.23H52.0606ZM49.7656 80.095V79.24H52.0606V80.095H49.7656ZM53.7256 81.445V75.865H47.9956V89.305H49.7656V81.445H53.7256ZM55.4506 83.95V85.72H52.9756V83.95H55.4506ZM57.1156 87.19V82.48H51.3106V88.03H52.9756V87.19H57.1156ZM56.4556 80.11V79.24H58.8256V80.11H56.4556ZM58.8256 77.215V78.04H56.4556V77.215H58.8256ZM60.6256 75.865H54.7606V81.46H58.8256V87.145C58.8256 87.415 58.7206 87.505 58.4356 87.505C58.1506 87.52 57.1306 87.535 56.2606 87.475C56.5156 87.955 56.8006 88.795 56.8606 89.305C58.2406 89.305 59.1856 89.26 59.8006 88.96C60.4306 88.675 60.6256 88.165 60.6256 87.175V75.865ZM72.2506 84.745V87.19H66.3256V84.745H72.2506ZM64.5706 89.32H66.3256V88.765H72.2506V89.32H74.0806V83.17H64.5706V89.32ZM66.2356 80.11C67.4656 79.135 68.5156 78.07 69.2206 77.065C69.9406 78.055 71.0506 79.135 72.2956 80.11H66.2356ZM68.2156 75.31C67.0906 77.14 64.6906 79.405 62.1106 80.65C62.5006 81.025 62.9956 81.67 63.2356 82.105C64.0306 81.67 64.8256 81.175 65.5606 80.635V81.685H73.0306V80.65C73.7806 81.19 74.5606 81.685 75.3256 82.075C75.6406 81.52 76.0456 80.935 76.4806 80.47C74.0956 79.51 71.6656 77.605 70.0606 75.31H68.2156ZM88.2406 76.225H86.2306C86.2756 76.525 86.3356 77.23 86.3356 77.605V79.3C84.9706 79.42 83.5156 79.555 82.2406 79.675C82.2406 79.09 82.2556 78.58 82.2556 78.235C82.2556 77.605 82.2706 77.185 82.3456 76.675H80.2306C80.3056 77.215 80.3506 77.725 80.3506 78.34C80.3506 78.595 80.3506 79.15 80.3506 79.855C79.8706 79.9 79.4806 79.93 79.2106 79.96C78.4456 80.035 77.7556 80.065 77.3206 80.065L77.5306 81.985C77.9206 81.925 78.8506 81.775 79.3306 81.715C79.5856 81.685 79.9306 81.655 80.3356 81.61C80.3356 83.005 80.3356 84.46 80.3506 85.105C80.4256 87.7 80.8906 88.51 84.7756 88.51C86.2006 88.51 88.0456 88.39 89.0506 88.27L89.1256 86.23C88.0006 86.425 86.1106 86.605 84.6406 86.605C82.3906 86.605 82.2556 86.275 82.2256 84.805C82.1956 84.16 82.2106 82.78 82.2256 81.4C83.5006 81.265 84.9706 81.13 86.3056 81.025C86.2906 81.745 86.2456 82.435 86.1856 82.84C86.1556 83.125 86.0206 83.185 85.7206 83.185C85.4206 83.185 84.8056 83.095 84.3406 82.99L84.2956 84.655C84.8206 84.73 86.0206 84.88 86.5606 84.88C87.3256 84.88 87.7006 84.685 87.8656 83.89C87.9856 83.26 88.0456 82.03 88.0906 80.89C88.5256 80.86 88.9156 80.845 89.2456 80.83C89.6356 80.815 90.4306 80.8 90.6856 80.815V78.97C90.2506 79.015 89.6656 79.045 89.2456 79.075C88.9006 79.09 88.5256 79.12 88.1206 79.15C88.1356 78.655 88.1356 78.115 88.1506 77.53C88.1656 77.125 88.2106 76.465 88.2406 76.225Z" fill="black"/>
<path d="M44.7656 59.774V36" stroke="#2861A3" stroke-width="2" stroke-linecap="square"/>
<path d="M78.334 36V59.774" stroke="#218A6E" stroke-width="2" stroke-linecap="square" stroke-linejoin="round"/>
<path d="M44.7656 36H78.3336" stroke="#EC6D88" stroke-width="2" stroke-linecap="square"/>
<path d="M54.7756 59.7734H44.7656" stroke="#2861A3" stroke-width="2"/>
<path d="M77.5635 59.8041L66.6035 47.2051" stroke="#218A6E" stroke-width="2" stroke-linejoin="round"/>
<path d="M45.2246 59.8041L56.1846 47.2051" stroke="#2861A3" stroke-width="2"/>
<path d="M78.6555 36.1914L61.5455 51.6514L44.4395 36.2324" stroke="#EC6D88" stroke-width="2"/>
<path d="M78.3511 59.7734H54.7871" stroke="#218A6E" stroke-width="2" stroke-linejoin="round"/>
</svg>
