<svg width="122" height="122" viewBox="0 0 122 122" fill="none" xmlns="http://www.w3.org/2000/svg">
<rect width="122" height="122" rx="24" fill="#FFE600"/>
<path d="M39.925 79.795C41.275 80.785 42.985 82.18 43.735 83.14L45.325 81.91C44.485 80.965 42.745 79.645 41.44 78.76H45.13V77.02H39.385V75.28H37.555V77.02H31.885V78.76H41.35L39.925 79.795ZM35.47 78.88C34.6 80.035 33.085 81.19 31.675 81.895C32.095 82.21 32.83 82.9 33.175 83.275C34.57 82.405 36.25 80.995 37.315 79.6L35.47 78.88ZM40.27 81.445C39.865 82.555 39.265 83.515 38.515 84.31C37.78 83.515 37.21 82.585 36.79 81.535L35.08 82.045C35.635 83.365 36.31 84.52 37.15 85.495C35.65 86.53 33.745 87.22 31.495 87.655C31.84 88.06 32.425 88.9 32.62 89.335C34.885 88.78 36.85 87.955 38.47 86.77C39.985 88 41.92 88.84 44.38 89.305C44.62 88.81 45.145 88.015 45.535 87.61C43.225 87.25 41.35 86.545 39.895 85.51C40.84 84.55 41.605 83.38 42.19 82L40.27 81.445ZM54.82 80.335V81.145H53.095V80.335H54.82ZM58.18 81.145H56.41V80.335H58.18V81.145ZM56.41 83.23V82.39H58.18V83.23H56.41ZM53.095 83.23V82.39H54.82V83.23H53.095ZM53.095 84.52H54.82V86.71H56.41V84.52H58.18V85.21C58.18 85.36 58.135 85.42 57.955 85.435C57.805 85.435 57.28 85.435 56.815 85.42C57.01 85.795 57.19 86.38 57.25 86.815C58.15 86.815 58.795 86.815 59.275 86.56C59.755 86.32 59.89 85.945 59.89 85.225V79.045H58.075C57.82 78.895 57.505 78.745 57.175 78.58C58.15 77.98 59.095 77.26 59.845 76.555L58.78 75.7L58.435 75.79H51.55V77.14H56.89C56.515 77.41 56.11 77.695 55.69 77.935C55.075 77.665 54.445 77.425 53.92 77.23L52.765 78.19C53.38 78.43 54.1 78.73 54.775 79.045H51.415V86.77H53.095V84.52ZM50.59 77.92C50.05 77.2 48.895 76.24 47.98 75.61L46.75 76.75C47.665 77.44 48.79 78.475 49.255 79.195L50.59 77.92ZM50.14 81.115H46.525V82.75H48.43V86.02C47.74 86.53 46.975 87.025 46.33 87.385L47.155 89.17C47.995 88.54 48.7 87.955 49.39 87.37C50.29 88.525 51.475 88.96 53.275 89.035C55.105 89.11 58.285 89.08 60.13 88.99C60.205 88.495 60.475 87.67 60.685 87.25C58.63 87.415 55.075 87.46 53.29 87.385C51.76 87.325 50.725 86.905 50.14 85.9V81.115ZM66.97 80.275H70.48C70.225 80.71 69.88 81.1 69.355 81.415C68.395 81.175 67.435 80.965 66.565 80.8L66.97 80.275ZM75.31 85.93V84.46H69.34V83.44H67.945C68.59 83.29 69.145 83.11 69.625 82.9C71.095 83.32 72.445 83.77 73.345 84.16L74.41 82.9C73.57 82.585 72.46 82.24 71.245 81.895C71.755 81.445 72.13 80.905 72.4 80.275H75.04V78.88H68.035C68.215 78.64 68.38 78.4 68.545 78.175L67.18 77.77H73.21V78.595H74.935V76.3H69.385V75.31H67.6V76.3H62.095V78.595H63.745V77.77H66.82C66.58 78.115 66.295 78.49 66.01 78.88H61.99V80.275H64.945C64.525 80.785 64.135 81.265 63.775 81.655L65.47 82.12L65.665 81.895C66.115 81.985 66.595 82.105 67.075 82.21C65.92 82.465 64.405 82.63 62.38 82.735C62.605 83.08 62.89 83.695 62.965 84.115C64.84 83.98 66.355 83.8 67.57 83.53V84.46H61.735V85.93H66.31C65.035 86.74 63.16 87.4 61.36 87.715C61.735 88.06 62.215 88.72 62.455 89.155C64.315 88.705 66.19 87.835 67.57 86.71V89.29H69.34V86.62C70.765 87.775 72.7 88.69 74.575 89.14C74.83 88.69 75.325 88 75.715 87.625C73.9 87.34 72.025 86.71 70.705 85.93H75.31ZM87.91 79.525V84.94C87.085 83.905 85.48 82.375 84.205 81.22C84.325 80.635 84.385 80.08 84.415 79.525H87.91ZM79.15 79.525H82.57C82.495 81.37 81.985 83.59 79.15 85.06V79.525ZM89.68 77.785H84.43V75.295H82.585V77.785H77.365V89.335H79.15V85.105C79.585 85.435 80.14 86.065 80.395 86.425C82.03 85.465 83.035 84.235 83.62 82.975C84.715 84.07 85.84 85.285 86.44 86.11L87.91 84.97V87.22C87.91 87.49 87.82 87.565 87.535 87.58C87.25 87.58 86.245 87.595 85.36 87.55C85.615 88.015 85.885 88.81 85.945 89.32C87.28 89.32 88.24 89.29 88.855 89.005C89.485 88.72 89.68 88.225 89.68 87.265V77.785Z" fill="black"/>
<path d="M60.6047 43.9477C63.0033 43.9477 64.9477 42.0033 64.9477 39.6047C64.9477 37.2061 63.0033 35.2617 60.6047 35.2617C58.2061 35.2617 56.2617 37.2061 56.2617 39.6047C56.2617 42.0033 58.2061 43.9477 60.6047 43.9477Z" stroke="#218A6E" stroke-width="2" stroke-linejoin="round"/>
<path d="M48 39.605C48 32.643 53.643 27 60.605 27C67.567 27 73.21 32.643 73.21 39.605" stroke="#2861A3" stroke-width="2" stroke-linejoin="round"/>
<path d="M73.21 39.6055C73.21 46.3995 68.422 50.5155 65.263 54.6215C62.12 58.7065 60.605 61.4845 60.605 61.4845C60.605 61.4845 59.09 58.7065 55.947 54.6215C52.788 50.5155 48 46.3995 48 39.6055" stroke="#EC6D88" stroke-width="2" stroke-linejoin="round"/>
</svg>
