<svg width="123" height="122" viewBox="0 0 123 122" fill="none" xmlns="http://www.w3.org/2000/svg">
<rect x="0.765625" width="122" height="122" rx="24" fill="#FFE600"/>
<path d="M42.8656 87.295H35.8306V85.99H42.8656V87.295ZM37.0456 81.19H41.5006V82.24H37.0456V81.19ZM43.2256 83.545V79.87H35.3956V83.545H38.1256C38.0656 83.845 37.9756 84.16 37.9006 84.46H34.1356V89.335H35.8306V88.84H42.8656V89.335H44.6356V84.46H39.6706C39.8056 84.175 39.9406 83.875 40.0606 83.545H43.2256ZM43.6156 77.62C44.0356 77.125 44.4856 76.525 44.9206 75.955L43.0006 75.355C42.7156 76.075 42.1456 76.975 41.6656 77.62H39.2056L40.2556 77.23C40.0456 76.69 39.5506 75.835 39.1156 75.25L37.5556 75.775C37.9156 76.345 38.3206 77.08 38.5306 77.62H36.2206L36.7006 77.41C36.4456 76.855 35.8606 76.06 35.3656 75.49L33.8206 76.165C34.1656 76.6 34.5406 77.14 34.8106 77.62H32.9806V80.815H34.6156V79.135H43.9906V80.815H45.7156V77.62H43.6156ZM56.1106 79.195C55.9456 79.6 55.7656 80.035 55.5856 80.395H52.7806L53.0356 80.35C52.9306 80.035 52.7356 79.585 52.5256 79.195H56.1106ZM60.9556 85.885V84.415H55.1206V83.755H59.6206V82.465H55.1206V81.79H60.3256V80.395H57.3856C57.6106 80.035 57.8506 79.63 58.0906 79.195H60.9106V77.74H58.9606C59.3056 77.215 59.7106 76.54 60.1306 75.85L58.2556 75.4C58.0456 76.06 57.6706 76.96 57.3106 77.575L57.8506 77.74H56.5156V75.295H54.8356V77.74H53.7256V75.295H52.0606V77.74H50.6956L51.4306 77.47C51.2206 76.885 50.7256 76 50.2906 75.355L48.7606 75.88C49.0906 76.45 49.4806 77.17 49.6906 77.74H47.6806V79.195H50.8156L50.6356 79.225C50.8306 79.57 51.0256 80.02 51.1456 80.395H48.2956V81.79H53.3656V82.465H49.0456V83.755H53.3656V84.415H47.6356V85.885H51.9406C50.6506 86.665 48.8806 87.295 47.2006 87.64C47.5756 88 48.0856 88.69 48.3406 89.125C50.1256 88.66 51.9706 87.79 53.3656 86.695V89.305H55.1206V86.605C56.5006 87.775 58.3156 88.675 60.1606 89.14C60.4306 88.66 60.9556 87.91 61.3606 87.52C59.6206 87.25 57.8806 86.665 56.6056 85.885H60.9556ZM65.7706 77.8V80.44H64.3906V77.8H65.7706ZM64.3906 84.82V82H65.7706V84.82H64.3906ZM67.4356 76.21H62.7406V87.73H64.3906V86.41H67.4356V76.21ZM68.3206 85.15C68.9956 85.915 69.7606 86.98 70.0306 87.67L71.5606 86.785C71.2456 86.05 70.4356 85.06 69.7456 84.325L68.3206 85.15ZM76.2556 81.31V79.75H72.8356V78.43H75.8356V76.87H72.8356V75.295H71.0806V76.87H68.2006V78.43H71.0806V79.75H67.6906V81.31H72.9856V82.6H67.7206V84.145H72.9856V87.37C72.9856 87.58 72.9106 87.64 72.6706 87.64C72.4456 87.64 71.6056 87.64 70.8856 87.61C71.1256 88.09 71.3956 88.795 71.4556 89.29C72.5656 89.29 73.3756 89.245 73.9606 88.99C74.5456 88.72 74.7106 88.27 74.7106 87.415V84.145H76.1506V82.6H74.7106V81.31H76.2556ZM82.0606 77.155V77.95H79.7506V77.155H82.0606ZM79.7506 80.005V79.15H82.0606V80.005H79.7506ZM83.7256 81.28V75.865H77.9806V89.305H79.7506V81.28H83.7256ZM86.4556 80.035V79.15H88.8406V80.035H86.4556ZM88.8406 77.155V77.95H86.4556V77.155H88.8406ZM82.9906 86.605V85.675H85.4656V86.605H82.9906ZM85.4656 84.4H82.9906V83.5H85.4656V84.4ZM90.6406 75.865H84.7606V81.31H88.8406V87.175C88.8406 87.415 88.7506 87.505 88.4806 87.505C88.2856 87.52 87.7306 87.52 87.1456 87.505V82.195L82.1056 82.18V82.195H81.3706V88.675H82.9906V87.91H86.7106C86.8906 88.375 87.0556 88.93 87.1006 89.305C88.3906 89.305 89.2606 89.26 89.8456 88.96C90.4456 88.675 90.6406 88.15 90.6406 87.19V75.865Z" fill="black"/>
<path d="M50.2812 32.073C53.4753 28.884 57.9743 27 62.7653 27C72.7812 27 80.7653 35.117 80.7653 44.973C80.7653 54.974 72.6363 62.946 62.7653 62.946" stroke="#EC6D88" stroke-width="2" stroke-linejoin="round"/>
<path d="M62.7656 62.9457C52.7496 62.9457 44.7656 54.8287 44.7656 44.9727" stroke="#2861A3" stroke-width="2" stroke-linejoin="round"/>
<path d="M44.7656 44.9723C44.7656 39.8993 46.9426 35.2613 50.2816 32.0723" stroke="#218A6E" stroke-width="2" stroke-linejoin="round"/>
<path d="M61.2661 46.4648H61.2441C61.2521 46.4648 61.2591 46.4688 61.2661 46.4688V46.4648Z" fill="#218A6E"/>
<path d="M62.7656 32.3086V44.9746" stroke="#2861A3" stroke-width="2" stroke-linecap="round" stroke-linejoin="round"/>
<path d="M69.0986 45.9727H61.7656V43.9727H69.0986C69.6516 43.9727 70.0986 44.4207 70.0986 44.9727C70.0986 45.5247 69.6506 45.9727 69.0986 45.9727Z" fill="#218A6E"/>
</svg>
