<svg width="54" height="58" viewBox="0 0 54 58" fill="none" xmlns="http://www.w3.org/2000/svg">
<path d="M10.9111 4.25391H41.0891C42.2061 4.25391 43.0451 5.10191 43.0451 6.23291V33.5179C43.0451 34.6489 42.2071 35.4969 41.0891 35.4969H10.9111C9.79408 35.4969 8.95508 34.6489 8.95508 33.5179V6.23291C8.95508 5.10191 9.93308 4.25391 10.9111 4.25391Z" stroke="#218A6E" stroke-width="1.9103" stroke-linejoin="round"/>
<path d="M8.95508 13.4429V6.23291C8.95508 5.10191 9.79308 4.25391 10.9111 4.25391H41.0891C42.2061 4.25391 43.0451 5.10191 43.0451 6.23291V13.4429H8.95508Z" stroke="#EC6D88" stroke-width="1.9103" stroke-linecap="square"/>
<path fill-rule="evenodd" clip-rule="evenodd" d="M17.2461 20.6499C17.2461 19.6379 18.0041 18.8789 19.0151 18.8789C20.0261 18.8789 20.7841 19.6379 20.7841 20.6499C20.7841 21.6619 20.0261 22.4209 19.0151 22.4209C18.0031 22.4209 17.2461 21.6619 17.2461 20.6499Z" fill="#2861A3"/>
<path fill-rule="evenodd" clip-rule="evenodd" d="M31.2168 20.6499C31.2168 19.6379 31.9748 18.8789 32.9858 18.8789C33.9968 18.8789 34.7548 19.6379 34.7548 20.6499C34.7548 21.6619 33.9968 22.4209 32.9858 22.4209C32.1008 22.4209 31.2168 21.6619 31.2168 20.6499Z" fill="#2861A3"/>
<path fill-rule="evenodd" clip-rule="evenodd" d="M25.9995 18.8789C26.9765 18.8789 27.7685 19.6719 27.7685 20.6499C27.7685 21.6279 26.9765 22.4209 25.9995 22.4209C25.0225 22.4209 24.2305 21.6279 24.2305 20.6499C24.2305 19.6719 25.0225 18.8789 25.9995 18.8789Z" fill="#2861A3"/>
<path fill-rule="evenodd" clip-rule="evenodd" d="M17.2461 28.1421C17.2461 27.1301 18.0041 26.3711 19.0151 26.3711C20.0261 26.3711 20.7841 27.1301 20.7841 28.1421C20.7841 29.1541 20.0261 29.9131 19.0151 29.9131C18.0031 29.9131 17.2461 29.0281 17.2461 28.1421Z" fill="#2861A3"/>
<path fill-rule="evenodd" clip-rule="evenodd" d="M31.2168 28.1421C31.2168 27.1301 31.9748 26.3711 32.9858 26.3711C33.9968 26.3711 34.7548 27.1301 34.7548 28.1421C34.7548 29.1541 33.9968 29.9131 32.9858 29.9131C32.1008 29.9131 31.2168 29.0281 31.2168 28.1421Z" fill="#2861A3"/>
<path d="M25.9995 29.9131C26.9765 29.9131 27.7685 29.1202 27.7685 28.1421C27.7685 27.164 26.9765 26.3711 25.9995 26.3711C25.0225 26.3711 24.2305 27.164 24.2305 28.1421C24.2305 29.1202 25.0225 29.9131 25.9995 29.9131Z" fill="#2861A3"/>
<path d="M20.832 1V7.503" stroke="#218A6E" stroke-width="1.9103" stroke-linecap="round" stroke-linejoin="round"/>
<path d="M30.4707 1V7.503" stroke="#218A6E" stroke-width="1.9103" stroke-linecap="round" stroke-linejoin="round"/>
<path d="M2.18529 56H4.53829L5.59129 51.242C5.74729 50.488 5.87729 49.747 6.00729 49.006H6.05929C6.17629 49.747 6.31929 50.488 6.47529 51.242L7.55429 56H9.94629L11.7273 46.367H9.90729L9.14029 51.073C8.99729 52.074 8.85429 53.101 8.71129 54.141H8.64629C8.43829 53.101 8.24329 52.061 8.03529 51.073L6.93029 46.367H5.27929L4.16129 51.073C3.95329 52.074 3.74529 53.101 3.55029 54.141H3.49829C3.35529 53.101 3.19929 52.087 3.05629 51.073L2.28929 46.367H0.339285L2.18529 56ZM16.1868 56.182C17.0838 56.182 18.0068 55.87 18.7218 55.376L18.0718 54.206C17.5518 54.531 17.0318 54.713 16.4338 54.713C15.3548 54.713 14.5748 54.089 14.4188 52.893H18.9038C18.9558 52.724 18.9948 52.373 18.9948 52.009C18.9948 50.007 17.9548 48.538 15.9528 48.538C14.2238 48.538 12.5598 50.007 12.5598 52.36C12.5598 54.765 14.1458 56.182 16.1868 56.182ZM14.3928 51.619C14.5358 50.566 15.2118 50.02 15.9788 50.02C16.9148 50.02 17.3568 50.644 17.3568 51.619H14.3928ZM24.2215 56.182C25.8205 56.182 27.3155 54.739 27.3155 52.23C27.3155 50.007 26.2365 48.538 24.4425 48.538C23.7275 48.538 22.9995 48.889 22.4275 49.409L22.4795 48.239V45.626H20.5685V56H22.0635L22.2325 55.233H22.2845C22.8695 55.844 23.5715 56.182 24.2215 56.182ZM23.7925 54.609C23.4025 54.609 22.9345 54.466 22.4795 54.063V50.865C22.9735 50.358 23.4155 50.111 23.9095 50.111C24.9105 50.111 25.3525 50.878 25.3525 52.269C25.3525 53.855 24.6765 54.609 23.7925 54.609ZM39.1657 49.825L38.8797 49.929H36.8257L37.1377 49.422C36.8387 49.279 36.4487 49.136 36.0197 48.967C37.1117 48.226 38.1907 47.329 39.0227 46.497L37.9177 45.626L37.5667 45.717H29.7927V47.134H36.0717C35.5647 47.576 34.9797 48.005 34.4207 48.356C33.6927 48.083 32.9647 47.836 32.3797 47.628L31.6127 48.798C32.4447 49.11 33.4977 49.526 34.4597 49.929H28.5447V51.398H33.6797V55.389C33.6797 55.584 33.6017 55.636 33.3547 55.649C33.0947 55.649 32.1327 55.649 31.3657 55.623C31.5997 56.026 31.8467 56.663 31.9247 57.105C33.0427 57.105 33.8877 57.092 34.4857 56.871C35.1097 56.65 35.2917 56.26 35.2917 55.441V51.398H38.0347C37.7097 51.983 37.3327 52.568 37.0207 52.997L38.3467 53.764C39.0747 52.893 39.8417 51.593 40.4267 50.371L39.1657 49.825ZM41.8307 52.594C41.7267 53.686 41.5187 54.843 41.1417 55.61C41.4797 55.727 42.0517 56 42.3247 56.169C42.7017 55.337 42.9747 54.037 43.1047 52.815L41.8307 52.594ZM44.7297 52.88C45.0547 53.673 45.3927 54.726 45.4967 55.389L46.7187 54.96C46.5627 54.297 46.2247 53.283 45.8737 52.516L44.7297 52.88ZM48.7857 47.186C49.0327 46.588 49.2537 45.964 49.4227 45.327L47.8367 44.989C47.4207 46.627 46.6537 48.291 45.6917 49.318L45.6007 49.162L44.5087 49.643C44.6647 49.916 44.8207 50.228 44.9637 50.54L43.6507 50.592C44.4957 49.539 45.4057 48.213 46.1337 47.069L44.8207 46.523C44.5087 47.173 44.0927 47.927 43.6247 48.655C43.4947 48.486 43.3387 48.291 43.1697 48.109C43.6377 47.381 44.1707 46.38 44.6387 45.483L43.2737 45.002C43.0527 45.678 42.6887 46.549 42.3247 47.264C42.2207 47.173 42.1167 47.082 42.0127 46.991L41.2847 48.057C41.8307 48.577 42.4677 49.279 42.8447 49.838C42.6497 50.124 42.4417 50.397 42.2467 50.644L41.2847 50.683L41.4147 52.035L43.3387 51.905V57.144H44.7037V51.801L45.4447 51.749C45.5227 52.009 45.5877 52.243 45.6267 52.451L46.7967 51.905C46.6537 51.255 46.2377 50.293 45.7827 49.474C46.1727 49.708 46.7447 50.098 47.0047 50.332C47.3947 49.864 47.7587 49.292 48.1097 48.655H51.6977C51.5547 53.088 51.3597 54.986 50.9697 55.389C50.8137 55.558 50.6707 55.61 50.4237 55.61C50.0727 55.61 49.3317 55.61 48.5127 55.532C48.7987 55.974 49.0067 56.65 49.0327 57.092C49.7867 57.118 50.5927 57.131 51.0607 57.053C51.6067 56.975 51.9447 56.832 52.3087 56.338C52.8547 55.649 53.0367 53.595 53.2057 47.901C53.2187 47.706 53.2187 47.186 53.2187 47.186H48.7857ZM50.2547 53.127C49.9817 52.308 49.2407 51.112 48.5647 50.215L47.3297 50.839C47.9927 51.775 48.6687 53.023 48.9157 53.842L50.2547 53.127Z" fill="black"/>
</svg>
