<svg width="110" height="110" viewBox="0 0 110 110" fill="none" xmlns="http://www.w3.org/2000/svg">
<rect x="0.441406" width="109.441" height="109.441" rx="24" fill="#FFE600"/>
<path d="M36.61 85.0627H30.044V83.8447H36.61V85.0627ZM31.178 79.3647H35.336V80.3447H31.178V79.3647ZM36.946 81.5627V78.1327H29.638V81.5627H32.186C32.13 81.8427 32.046 82.1367 31.976 82.4167H28.462V86.9667H30.044V86.5047H36.61V86.9667H38.262V82.4167H33.628C33.754 82.1507 33.88 81.8707 33.992 81.5627H36.946ZM37.31 76.0327C37.702 75.5707 38.122 75.0107 38.528 74.4787L36.736 73.9187C36.47 74.5767 35.938 75.4307 35.49 76.0327H33.194L34.174 75.6687C33.978 75.1647 33.516 74.3667 33.11 73.8207L31.654 74.3107C31.99 74.8427 32.368 75.5287 32.564 76.0327H30.408L30.856 75.8367C30.618 75.3187 30.072 74.5767 29.61 74.0447L28.168 74.6607C28.49 75.0807 28.84 75.5847 29.092 76.0327H27.398V79.0147H28.91V77.4467H37.66V79.0147H39.27V76.0327H37.31ZM48.972 77.5027C48.818 77.8807 48.65 78.2867 48.482 78.6227H45.864L46.102 78.5807C46.004 78.2727 45.822 77.8667 45.626 77.5027H48.972ZM53.494 83.7467V82.3747H48.048V81.7587H52.248V80.5547H48.048V79.9247H52.906V78.6227H50.162C50.372 78.2867 50.596 77.9087 50.82 77.5027H53.452V76.1447H51.632C51.954 75.6547 52.332 75.0247 52.724 74.3807L50.974 73.9607C50.778 74.5767 50.428 75.4167 50.092 75.9907L50.596 76.1447H49.35V73.8627H47.782V76.1447H46.746V73.8627H45.192V76.1447H43.918L44.604 75.8927C44.408 75.3467 43.946 74.5207 43.54 73.9187L42.112 74.4087C42.42 74.9407 42.784 75.6127 42.98 76.1447H41.104V77.5027H44.03L43.862 77.5307C44.044 77.8527 44.226 78.2727 44.338 78.6227H41.678V79.9247H46.41V80.5547H42.378V81.7587H46.41V82.3747H41.062V83.7467H45.08C43.876 84.4747 42.224 85.0627 40.656 85.3847C41.006 85.7207 41.482 86.3647 41.72 86.7707C43.386 86.3367 45.108 85.5247 46.41 84.5027V86.9387H48.048V84.4187C49.336 85.5107 51.03 86.3507 52.752 86.7847C53.004 86.3367 53.494 85.6367 53.872 85.2727C52.248 85.0207 50.624 84.4747 49.434 83.7467H53.494ZM57.988 76.2007V78.6647H56.7V76.2007H57.988ZM56.7 82.7527V80.1207H57.988V82.7527H56.7ZM59.542 74.7167H55.16V85.4687H56.7V84.2367H59.542V74.7167ZM60.368 83.0607C60.998 83.7747 61.712 84.7687 61.964 85.4127L63.392 84.5867C63.098 83.9007 62.342 82.9767 61.698 82.2907L60.368 83.0607ZM67.774 79.4767V78.0207H64.582V76.7887H67.382V75.3327H64.582V73.8627H62.944V75.3327H60.256V76.7887H62.944V78.0207H59.78V79.4767H64.722V80.6807H59.808V82.1227H64.722V85.1327C64.722 85.3287 64.652 85.3847 64.428 85.3847C64.218 85.3847 63.434 85.3847 62.762 85.3567C62.986 85.8047 63.238 86.4627 63.294 86.9247C64.33 86.9247 65.086 86.8827 65.632 86.6447C66.178 86.3927 66.332 85.9727 66.332 85.1747V82.1227H67.676V80.6807H66.332V79.4767H67.774ZM73.192 75.5987V76.3407H71.036V75.5987H73.192ZM71.036 78.2587V77.4607H73.192V78.2587H71.036ZM74.746 79.4487V74.3947H69.384V86.9387H71.036V79.4487H74.746ZM77.294 78.2867V77.4607H79.52V78.2867H77.294ZM79.52 75.5987V76.3407H77.294V75.5987H79.52ZM74.06 84.4187V83.5507H76.37V84.4187H74.06ZM76.37 81.5207V82.3607H74.06V81.5207H76.37ZM81.2 74.3947H75.712V79.4767H79.52V84.9507C79.52 85.1747 79.436 85.2587 79.184 85.2587C79.002 85.2727 78.484 85.2727 77.938 85.2587V80.2887H72.548V86.3507H74.06V85.6367H77.532C77.7 86.0707 77.854 86.5887 77.896 86.9387C79.1 86.9387 79.912 86.8967 80.458 86.6167C81.018 86.3507 81.2 85.8607 81.2 84.9647V74.3947Z" fill="black"/>
<path d="M44.6356 29.4384C47.4114 26.7623 51.187 25.1172 55.3466 25.1172C63.8709 25.1172 70.7815 32.0277 70.7815 40.552C70.7815 49.0763 63.8709 55.9869 55.3466 55.9869" stroke="#EC6D88" stroke-width="3" stroke-linejoin="round"/>
<path d="M55.3468 32.2656V41.5108" stroke="#2861A3" stroke-width="3" stroke-linejoin="round"/>
<path d="M62.7106 41.5117H54.1501" stroke="#218A6E" stroke-width="3" stroke-linejoin="round"/>
<path d="M55.3468 55.9876C46.8225 55.9876 39.912 49.077 39.912 40.5527" stroke="#2861A3" stroke-width="3" stroke-linejoin="round"/>
<path d="M39.9111 40.5511C39.9111 36.1865 41.7226 32.2446 44.635 29.4375" stroke="#218A6E" stroke-width="3" stroke-linejoin="round"/>
</svg>
