<svg width="56" height="59" viewBox="0 0 56 59" fill="none" xmlns="http://www.w3.org/2000/svg">
<path d="M9.79068 45.9945C10.9607 46.8525 12.4427 48.0615 13.0927 48.8935L14.4707 47.8275C13.7427 47.0085 12.2347 45.8645 11.1037 45.0975H14.3017V43.5895H9.32268V42.0815H7.73668V43.5895H2.82268V45.0975H11.0257L9.79068 45.9945ZM5.92968 45.2015C5.17568 46.2025 3.86268 47.2035 2.64068 47.8145C3.00468 48.0875 3.64168 48.6855 3.94068 49.0105C5.14968 48.2565 6.60568 47.0345 7.52868 45.8255L5.92968 45.2015ZM10.0897 47.4245C9.73868 48.3865 9.21868 49.2185 8.56868 49.9075C7.93168 49.2185 7.43768 48.4125 7.07368 47.5025L5.59168 47.9445C6.07268 49.0885 6.65768 50.0895 7.38568 50.9345C6.08568 51.8315 4.43468 52.4295 2.48468 52.8065C2.78368 53.1575 3.29068 53.8855 3.45968 54.2625C5.42268 53.7815 7.12568 53.0665 8.52968 52.0395C9.84268 53.1055 11.5197 53.8335 13.6517 54.2365C13.8597 53.8075 14.3147 53.1185 14.6527 52.7675C12.6507 52.4555 11.0257 51.8445 9.76468 50.9475C10.5837 50.1155 11.2467 49.1015 11.7537 47.9055L10.0897 47.4245ZM22.6997 46.4625V47.1645H21.2047V46.4625H22.6997ZM25.6117 47.1645H24.0777V46.4625H25.6117V47.1645ZM24.0777 48.9715V48.2435H25.6117V48.9715H24.0777ZM21.2047 48.9715V48.2435H22.6997V48.9715H21.2047ZM21.2047 50.0895H22.6997V51.9875H24.0777V50.0895H25.6117V50.6875C25.6117 50.8175 25.5727 50.8695 25.4167 50.8825C25.2867 50.8825 24.8317 50.8825 24.4287 50.8695C24.5977 51.1945 24.7537 51.7015 24.8057 52.0785C25.5857 52.0785 26.1447 52.0785 26.5607 51.8575C26.9767 51.6495 27.0937 51.3245 27.0937 50.7005V45.3445H25.5207C25.2997 45.2145 25.0267 45.0845 24.7407 44.9415C25.5857 44.4215 26.4047 43.7975 27.0547 43.1865L26.1317 42.4455L25.8327 42.5235H19.8657V43.6935H24.4937C24.1687 43.9275 23.8177 44.1745 23.4537 44.3825C22.9207 44.1485 22.3747 43.9405 21.9197 43.7715L20.9187 44.6035C21.4517 44.8115 22.0757 45.0715 22.6607 45.3445H19.7487V52.0395H21.2047V50.0895ZM19.0337 44.3695C18.5657 43.7455 17.5647 42.9135 16.7717 42.3675L15.7057 43.3555C16.4987 43.9535 17.4737 44.8505 17.8767 45.4745L19.0337 44.3695ZM18.6437 47.1385H15.5107V48.5555H17.1617V51.3895C16.5637 51.8315 15.9007 52.2605 15.3417 52.5725L16.0567 54.1195C16.7847 53.5735 17.3957 53.0665 17.9937 52.5595C18.7737 53.5605 19.8007 53.9375 21.3607 54.0025C22.9467 54.0675 25.7027 54.0415 27.3017 53.9635C27.3667 53.5345 27.6007 52.8195 27.7827 52.4555C26.0017 52.5985 22.9207 52.6375 21.3737 52.5725C20.0477 52.5205 19.1507 52.1565 18.6437 51.2855V47.1385ZM33.2297 46.4105H36.2717C36.0507 46.7875 35.7517 47.1255 35.2967 47.3985C34.4647 47.1905 33.6327 47.0085 32.8787 46.8655L33.2297 46.4105ZM40.4577 51.3115V50.0375H35.2837V49.1535H34.0747C34.6337 49.0235 35.1147 48.8675 35.5307 48.6855C36.8047 49.0495 37.9747 49.4395 38.7547 49.7775L39.6777 48.6855C38.9497 48.4125 37.9877 48.1135 36.9347 47.8145C37.3767 47.4245 37.7017 46.9565 37.9357 46.4105H40.2237V45.2015H34.1527C34.3087 44.9935 34.4517 44.7855 34.5947 44.5905L33.4117 44.2395H38.6377V44.9545H40.1327V42.9655H35.3227V42.1075H33.7757V42.9655H29.0047V44.9545H30.4347V44.2395H33.0997C32.8917 44.5385 32.6447 44.8635 32.3977 45.2015H28.9137V46.4105H31.4747C31.1107 46.8525 30.7727 47.2685 30.4607 47.6065L31.9297 48.0095L32.0987 47.8145C32.4887 47.8925 32.9047 47.9965 33.3207 48.0875C32.3197 48.3085 31.0067 48.4515 29.2517 48.5425C29.4467 48.8415 29.6937 49.3745 29.7587 49.7385C31.3837 49.6215 32.6967 49.4655 33.7497 49.2315V50.0375H28.6927V51.3115H32.6577C31.5527 52.0135 29.9277 52.5855 28.3677 52.8585C28.6927 53.1575 29.1087 53.7295 29.3167 54.1065C30.9287 53.7165 32.5537 52.9625 33.7497 51.9875V54.2235H35.2837V51.9095C36.5187 52.9105 38.1957 53.7035 39.8207 54.0935C40.0417 53.7035 40.4707 53.1055 40.8087 52.7805C39.2357 52.5335 37.6107 51.9875 36.4667 51.3115H40.4577ZM51.3777 45.7605V50.4535C50.6627 49.5565 49.2717 48.2305 48.1667 47.2295C48.2707 46.7225 48.3227 46.2415 48.3487 45.7605H51.3777ZM43.7857 45.7605H46.7497C46.6847 47.3595 46.2427 49.2835 43.7857 50.5575V45.7605ZM52.9117 44.2525H48.3617V42.0945H46.7627V44.2525H42.2387V54.2625H43.7857V50.5965C44.1627 50.8825 44.6437 51.4285 44.8647 51.7405C46.2817 50.9085 47.1527 49.8425 47.6597 48.7505C48.6087 49.6995 49.5837 50.7525 50.1037 51.4675L51.3777 50.4795V52.4295C51.3777 52.6635 51.2997 52.7285 51.0527 52.7415C50.8057 52.7415 49.9347 52.7545 49.1677 52.7155C49.3887 53.1185 49.6227 53.8075 49.6747 54.2495C50.8317 54.2495 51.6637 54.2235 52.1967 53.9765C52.7427 53.7295 52.9117 53.3005 52.9117 52.4685V44.2525Z" fill="black"/>
<path d="M39.5158 11.9414C39.7877 15.5409 38.439 18.8156 36.1429 21.0836C32.9967 24.191 31.007 28.0138 29.4101 32.279L28.4671 34.9948L27.5241 32.279C25.9272 28.0138 23.9376 24.191 20.7913 21.0836C18.4952 18.8156 17.1465 15.5398 17.4184 11.9414" stroke="#EC6D88" stroke-width="2.15187" stroke-linejoin="round"/>
<path d="M28.4662 16.037C30.1711 16.037 31.5532 14.6139 31.5532 12.8583C31.5532 11.1028 30.1711 9.67969 28.4662 9.67969C26.7613 9.67969 25.3793 11.1028 25.3793 12.8583C25.3793 14.6139 26.7613 16.037 28.4662 16.037Z" stroke="#2861A3" stroke-width="2.15187" stroke-linejoin="round"/>
<path d="M17.4156 11.9416C17.8505 6.18417 22.68 1.53487 28.2896 1.44531H28.6413C34.2498 1.53487 39.0793 6.18417 39.5141 11.9416" stroke="#218A6E" stroke-width="2.15187" stroke-linejoin="round"/>
</svg>
