<svg width="110" height="110" viewBox="0 0 110 110" fill="none" xmlns="http://www.w3.org/2000/svg">
<rect width="109.441" height="109.441" rx="24" fill="#FFE600"/>
<path d="M34.1386 78.0627C35.3986 78.9867 36.9946 80.2887 37.6946 81.1847L39.1786 80.0367C38.3946 79.1547 36.7706 77.9227 35.5526 77.0967H38.9966V75.4727H33.6346V73.8487H31.9266V75.4727H26.6346V77.0967H35.4686L34.1386 78.0627ZM29.9806 77.2087C29.1686 78.2867 27.7546 79.3647 26.4386 80.0227C26.8306 80.3167 27.5166 80.9607 27.8386 81.3107C29.1406 80.4987 30.7086 79.1827 31.7026 77.8807L29.9806 77.2087ZM34.4606 79.6027C34.0826 80.6387 33.5226 81.5347 32.8226 82.2767C32.1366 81.5347 31.6046 80.6667 31.2126 79.6867L29.6166 80.1627C30.1346 81.3947 30.7646 82.4727 31.5486 83.3827C30.1486 84.3487 28.3706 84.9927 26.2706 85.3987C26.5926 85.7767 27.1386 86.5607 27.3206 86.9667C29.4346 86.4487 31.2686 85.6787 32.7806 84.5727C34.1946 85.7207 36.0006 86.5047 38.2966 86.9387C38.5206 86.4767 39.0106 85.7347 39.3746 85.3567C37.2186 85.0207 35.4686 84.3627 34.1106 83.3967C34.9926 82.5007 35.7066 81.4087 36.2526 80.1207L34.4606 79.6027ZM48.0406 78.5667V79.3227H46.4306V78.5667H48.0406ZM51.1766 79.3227H49.5246V78.5667H51.1766V79.3227ZM49.5246 81.2687V80.4847H51.1766V81.2687H49.5246ZM46.4306 81.2687V80.4847H48.0406V81.2687H46.4306ZM46.4306 82.4727H48.0406V84.5167H49.5246V82.4727H51.1766V83.1167C51.1766 83.2567 51.1346 83.3127 50.9666 83.3267C50.8266 83.3267 50.3366 83.3267 49.9026 83.3127C50.0846 83.6627 50.2526 84.2087 50.3086 84.6147C51.1486 84.6147 51.7506 84.6147 52.1986 84.3767C52.6466 84.1527 52.7726 83.8027 52.7726 83.1307V77.3627H51.0786C50.8406 77.2227 50.5466 77.0827 50.2386 76.9287C51.1486 76.3687 52.0306 75.6967 52.7306 75.0387L51.7366 74.2407L51.4146 74.3247H44.9886V75.5847H49.9726C49.6226 75.8367 49.2446 76.1027 48.8526 76.3267C48.2786 76.0747 47.6906 75.8507 47.2006 75.6687L46.1226 76.5647C46.6966 76.7887 47.3686 77.0687 47.9986 77.3627H44.8626V84.5727H46.4306V82.4727ZM44.0926 76.3127C43.5886 75.6407 42.5106 74.7447 41.6566 74.1567L40.5086 75.2207C41.3626 75.8647 42.4126 76.8307 42.8466 77.5027L44.0926 76.3127ZM43.6726 79.2947H40.2986V80.8207H42.0766V83.8727C41.4326 84.3487 40.7186 84.8107 40.1166 85.1467L40.8866 86.8127C41.6706 86.2247 42.3286 85.6787 42.9726 85.1327C43.8126 86.2107 44.9186 86.6167 46.5986 86.6867C48.3066 86.7567 51.2746 86.7287 52.9966 86.6447C53.0666 86.1827 53.3186 85.4127 53.5146 85.0207C51.5966 85.1747 48.2786 85.2167 46.6126 85.1467C45.1846 85.0907 44.2186 84.6987 43.6726 83.7607V79.2947ZM59.3806 78.5107H62.6566C62.4186 78.9167 62.0966 79.2807 61.6066 79.5747C60.7106 79.3507 59.8146 79.1547 59.0026 79.0007L59.3806 78.5107ZM67.1646 83.7887V82.4167H61.5926V81.4647H60.2906C60.8926 81.3247 61.4106 81.1567 61.8586 80.9607C63.2306 81.3527 64.4906 81.7727 65.3306 82.1367L66.3246 80.9607C65.5406 80.6667 64.5046 80.3447 63.3706 80.0227C63.8466 79.6027 64.1966 79.0987 64.4486 78.5107H66.9126V77.2087H60.3746C60.5426 76.9847 60.6966 76.7607 60.8506 76.5507L59.5766 76.1727H65.2046V76.9427H66.8146V74.8007H61.6346V73.8767H59.9686V74.8007H54.8306V76.9427H56.3706V76.1727H59.2406C59.0166 76.4947 58.7506 76.8447 58.4846 77.2087H54.7326V78.5107H57.4906C57.0986 78.9867 56.7346 79.4347 56.3986 79.7987L57.9806 80.2327L58.1626 80.0227C58.5826 80.1067 59.0306 80.2187 59.4786 80.3167C58.4006 80.5547 56.9866 80.7087 55.0966 80.8067C55.3066 81.1287 55.5726 81.7027 55.6426 82.0947C57.3926 81.9687 58.8066 81.8007 59.9406 81.5487V82.4167H54.4946V83.7887H58.7646C57.5746 84.5447 55.8246 85.1607 54.1446 85.4547C54.4946 85.7767 54.9426 86.3927 55.1666 86.7987C56.9026 86.3787 58.6526 85.5667 59.9406 84.5167V86.9247H61.5926V84.4327C62.9226 85.5107 64.7286 86.3647 66.4786 86.7847C66.7166 86.3647 67.1786 85.7207 67.5426 85.3707C65.8486 85.1047 64.0986 84.5167 62.8666 83.7887H67.1646ZM70.7486 77.8107H73.9406C73.8706 79.5327 73.3946 81.6047 70.7486 82.9767V77.8107ZM80.5766 76.1867H75.6766V73.8627H73.9546V76.1867H69.0826V86.9667H70.7486V83.0187C71.1546 83.3267 71.6726 83.9147 71.9106 84.2507C73.4366 83.3547 74.3746 82.2067 74.9206 81.0307C75.9426 82.0527 76.9926 83.1867 77.5526 83.9567L78.9246 82.8787C78.1686 81.9127 76.6566 80.4707 75.4666 79.3927C75.5786 78.8467 75.6346 78.3287 75.6626 77.8107H78.9246V84.9927C78.9246 85.2447 78.8406 85.3147 78.5746 85.3287C78.3086 85.3287 77.3706 85.3427 76.5446 85.3007C76.7826 85.7347 77.0346 86.4767 77.0906 86.9527C78.3366 86.9527 79.2326 86.9247 79.8066 86.6587C80.3946 86.3927 80.5766 85.9307 80.5766 85.0347V76.1867Z" fill="black"/>
<path d="M67.8251 32.3301C68.1515 36.6498 66.5329 40.5797 63.7774 43.3015C60.0015 47.0307 57.6138 51.6185 55.6974 56.7371L54.5657 59.9963L53.434 56.7371C51.5175 51.6185 49.1298 47.0307 45.354 43.3015C42.5985 40.5797 40.9799 36.6485 41.3062 32.3301" stroke="#EC6D88" stroke-width="3" stroke-linejoin="round"/>
<path d="M54.5645 37.2446C56.6105 37.2446 58.2691 35.5367 58.2691 33.4299C58.2691 31.3231 56.6105 29.6152 54.5645 29.6152C52.5185 29.6152 50.8599 31.3231 50.8599 33.4299C50.8599 35.5367 52.5185 37.2446 54.5645 37.2446Z" stroke="#2861A3" stroke-width="3" stroke-linejoin="round"/>
<path d="M41.3044 32.3309C41.8263 25.4214 47.6221 19.8418 54.3541 19.7344H54.7763C61.507 19.8418 67.3029 25.4214 67.8247 32.3309" stroke="#218A6E" stroke-width="3" stroke-linejoin="round"/>
</svg>
