<svg width="56" height="55" viewBox="0 0 56 55" fill="none" xmlns="http://www.w3.org/2000/svg">
<path d="M11.6795 48.4945H5.58246V47.3635H11.6795V48.4945ZM6.63546 43.2035H10.4965V44.1135H6.63546V43.2035ZM11.9915 45.2445V42.0595H5.20546V45.2445H7.57146C7.51946 45.5045 7.44146 45.7775 7.37646 46.0375H4.11346V50.2625H5.58246V49.8335H11.6795V50.2625H13.2135V46.0375H8.91046C9.02746 45.7905 9.14446 45.5305 9.24846 45.2445H11.9915ZM12.3295 40.1095C12.6935 39.6805 13.0835 39.1605 13.4605 38.6665L11.7965 38.1465C11.5495 38.7705 11.0555 39.5505 10.6395 40.1095H8.50746L9.41746 39.7715C9.23546 39.3035 8.80646 38.5625 8.42946 38.0555L7.07746 38.5105C7.38946 39.0045 7.74046 39.6415 7.92246 40.1095H5.92046L6.33646 39.9275C6.11546 39.4465 5.60846 38.7575 5.17946 38.2635L3.84046 38.8485C4.13946 39.2255 4.46446 39.6935 4.69846 40.1095H3.11246V42.8785H4.52946V41.4225H12.6545V42.8785H14.1495V40.1095H12.3295ZM23.1585 41.4745C23.0155 41.8255 22.8595 42.2025 22.7035 42.5145H20.2725L20.4935 42.4755C20.4025 42.2025 20.2335 41.8125 20.0515 41.4745H23.1585ZM27.3575 47.2725V45.9985H22.3005V45.4265H26.2005V44.3085H22.3005V43.7235H26.8115V42.5145H24.2635C24.4585 42.2025 24.6665 41.8515 24.8745 41.4745H27.3185V40.2135H25.6285C25.9275 39.7585 26.2785 39.1735 26.6425 38.5755L25.0175 38.1855C24.8355 38.7575 24.5105 39.5375 24.1985 40.0705L24.6665 40.2135H23.5095V38.0945H22.0535V40.2135H21.0915V38.0945H19.6485V40.2135H18.4655L19.1025 39.9795C18.9205 39.4725 18.4915 38.7055 18.1145 38.1465L16.7885 38.6015C17.0745 39.0955 17.4125 39.7195 17.5945 40.2135H15.8525V41.4745H18.5695L18.4135 41.5005C18.5825 41.7995 18.7515 42.1895 18.8555 42.5145H16.3855V43.7235H20.7795V44.3085H17.0355V45.4265H20.7795V45.9985H15.8135V47.2725H19.5445C18.4265 47.9485 16.8925 48.4945 15.4365 48.7935C15.7615 49.1055 16.2035 49.7035 16.4245 50.0805C17.9715 49.6775 19.5705 48.9235 20.7795 47.9745V50.2365H22.3005V47.8965C23.4965 48.9105 25.0695 49.6905 26.6685 50.0935C26.9025 49.6775 27.3575 49.0275 27.7085 48.6895C26.2005 48.4555 24.6925 47.9485 23.5875 47.2725H27.3575ZM31.5305 40.2655V42.5535H30.3345V40.2655H31.5305ZM30.3345 46.3495V43.9055H31.5305V46.3495H30.3345ZM32.9735 38.8875H28.9045V48.8715H30.3345V47.7275H32.9735V38.8875ZM33.7405 46.6355C34.3255 47.2985 34.9885 48.2215 35.2225 48.8195L36.5485 48.0525C36.2755 47.4155 35.5735 46.5575 34.9755 45.9205L33.7405 46.6355ZM40.6175 43.3075V41.9555H37.6535V40.8115H40.2535V39.4595H37.6535V38.0945H36.1325V39.4595H33.6365V40.8115H36.1325V41.9555H33.1945V43.3075H37.7835V44.4255H33.2205V45.7645H37.7835V48.5595C37.7835 48.7415 37.7185 48.7935 37.5105 48.7935C37.3155 48.7935 36.5875 48.7935 35.9635 48.7675C36.1715 49.1835 36.4055 49.7945 36.4575 50.2235C37.4195 50.2235 38.1215 50.1845 38.6285 49.9635C39.1355 49.7295 39.2785 49.3395 39.2785 48.5985V45.7645H40.5265V44.4255H39.2785V43.3075H40.6175ZM45.6485 39.7065V40.3955H43.6465V39.7065H45.6485ZM43.6465 42.1765V41.4355H45.6485V42.1765H43.6465ZM47.0915 43.2815V38.5885H42.1125V50.2365H43.6465V43.2815H47.0915ZM49.4575 42.2025V41.4355H51.5245V42.2025H49.4575ZM51.5245 39.7065V40.3955H49.4575V39.7065H51.5245ZM46.4545 47.8965V47.0905H48.5995V47.8965H46.4545ZM48.5995 45.9855H46.4545V45.2055H48.5995V45.9855ZM53.0845 38.5885H47.9885V43.3075H51.5245V48.3905C51.5245 48.5985 51.4465 48.6765 51.2125 48.6765C51.0435 48.6895 50.5625 48.6895 50.0555 48.6765V44.0745L45.6875 44.0615V44.0745H45.0505V49.6905H46.4545V49.0275H49.6785C49.8345 49.4305 49.9775 49.9115 50.0165 50.2365C51.1345 50.2365 51.8885 50.1975 52.3955 49.9375C52.9155 49.6905 53.0845 49.2355 53.0845 48.4035V38.5885Z" fill="black"/>
<path d="M19.8236 5.53432C22.1366 3.30438 25.2826 1.93359 28.7488 1.93359C35.8518 1.93359 41.6101 7.69195 41.6101 14.795C41.6101 21.898 35.8518 27.6563 28.7488 27.6563" stroke="#EC6D88" stroke-width="2.15187" stroke-linejoin="round"/>
<path d="M28.7512 7.88672V15.5904" stroke="#2861A3" stroke-width="2.15187" stroke-linejoin="round"/>
<path d="M34.889 15.5918H27.7559" stroke="#218A6E" stroke-width="2.15187" stroke-linejoin="round"/>
<path d="M28.75 27.6563C21.647 27.6563 15.8887 21.8979 15.8887 14.7949" stroke="#2861A3" stroke-width="2.15187" stroke-linejoin="round"/>
<path d="M15.8887 14.7938C15.8887 11.157 17.3981 7.8723 19.8249 5.5332" stroke="#218A6E" stroke-width="2.15187" stroke-linejoin="round"/>
</svg>
