<svg width="55" height="50" viewBox="0 0 55 50" fill="none" xmlns="http://www.w3.org/2000/svg">
<path d="M7.47844 33.5495H5.68444C5.72344 33.7835 5.77544 34.4205 5.77544 34.6935C5.77544 34.9145 5.77544 35.2915 5.76244 35.7465C5.50244 35.7595 5.24244 35.7725 5.00844 35.7725C4.54044 35.7725 3.98144 35.7595 3.21444 35.6685L3.24044 37.2415C3.68244 37.2935 4.18944 37.3065 5.06044 37.3065C5.26844 37.3065 5.50244 37.2935 5.74944 37.2805C5.74944 37.6445 5.74944 38.0085 5.74944 38.3725C5.74944 38.6715 5.74944 38.9835 5.76244 39.2955C4.16344 39.9845 2.86344 41.1675 2.86344 42.2985C2.86344 43.6765 4.64444 44.7685 5.90544 44.7685C6.76344 44.7685 7.33544 44.3395 7.33544 42.7275C7.33544 42.2855 7.30944 41.2715 7.28344 40.2445C8.07644 40.0105 8.92144 39.8805 9.72744 39.8805C10.8584 39.8805 11.6384 40.4005 11.6384 41.2845C11.6384 42.2335 10.8064 42.7535 9.75344 42.9485C9.29844 43.0265 8.73944 43.0395 8.15444 43.0395L8.75244 44.7165C9.28544 44.6775 9.85744 44.6385 10.4554 44.5085C12.5224 43.9885 13.3284 42.8315 13.3284 41.2975C13.3284 39.5035 11.7554 38.4635 9.75344 38.4635C9.03844 38.4635 8.14144 38.5805 7.25744 38.8015C7.25744 38.6325 7.25744 38.4765 7.25744 38.3205C7.25744 37.9435 7.25744 37.5405 7.27044 37.1505C8.11544 37.0465 9.01244 36.9165 9.75344 36.7475L9.71444 35.1355C9.03844 35.3305 8.18044 35.4995 7.32244 35.6035C7.33544 35.2785 7.34844 34.9665 7.36144 34.6805C7.38744 34.3425 7.43944 33.7835 7.47844 33.5495ZM11.1834 34.9535L10.4684 36.2145C11.2744 36.6045 12.9774 37.5795 13.6014 38.1125L14.3814 36.7865C13.6924 36.2925 12.1844 35.4345 11.1834 34.9535ZM4.46244 42.2335C4.46244 41.7785 4.99544 41.2455 5.78844 40.8165C5.81444 41.5185 5.82744 42.1165 5.82744 42.4415C5.82744 42.8835 5.64544 42.9875 5.41144 42.9875C5.07344 42.9875 4.46244 42.6365 4.46244 42.2335ZM19.3994 34.7715V35.4735H17.4104V34.7715H19.3994ZM17.4104 37.2545V36.5135H19.3994V37.2545H17.4104ZM20.8424 38.4245V33.5885H15.8764V45.2365H17.4104V38.4245H20.8424ZM22.3374 40.5955V42.1295H20.1924V40.5955H22.3374ZM23.7804 43.4035V39.3215H18.7494V44.1315H20.1924V43.4035H23.7804ZM23.2084 37.2675V36.5135H25.2624V37.2675H23.2084ZM25.2624 34.7585V35.4735H23.2084V34.7585H25.2624ZM26.8224 33.5885H21.7394V38.4375H25.2624V43.3645C25.2624 43.5985 25.1714 43.6765 24.9244 43.6765C24.6774 43.6895 23.7934 43.7025 23.0394 43.6505C23.2604 44.0665 23.5074 44.7945 23.5594 45.2365C24.7554 45.2365 25.5744 45.1975 26.1074 44.9375C26.6534 44.6905 26.8224 44.2485 26.8224 43.3905V33.5885ZM36.8974 41.2845V43.4035H31.7624V41.2845H36.8974ZM30.2414 45.2495H31.7624V44.7685H36.8974V45.2495H38.4834V39.9195H30.2414V45.2495ZM31.6844 37.2675C32.7504 36.4225 33.6604 35.4995 34.2714 34.6285C34.8954 35.4865 35.8574 36.4225 36.9364 37.2675H31.6844ZM33.4004 33.1075C32.4254 34.6935 30.3454 36.6565 28.1094 37.7355C28.4474 38.0605 28.8764 38.6195 29.0844 38.9965C29.7734 38.6195 30.4624 38.1905 31.0994 37.7225V38.6325H37.5734V37.7355C38.2234 38.2035 38.8994 38.6325 39.5624 38.9705C39.8354 38.4895 40.1864 37.9825 40.5634 37.5795C38.4964 36.7475 36.3904 35.0965 34.9994 33.1075H33.4004ZM50.7554 33.9005H49.0134C49.0524 34.1605 49.1044 34.7715 49.1044 35.0965V36.5655C47.9214 36.6695 46.6604 36.7865 45.5554 36.8905C45.5554 36.3835 45.5684 35.9415 45.5684 35.6425C45.5684 35.0965 45.5814 34.7325 45.6464 34.2905H43.8134C43.8784 34.7585 43.9174 35.2005 43.9174 35.7335C43.9174 35.9545 43.9174 36.4355 43.9174 37.0465C43.5014 37.0855 43.1634 37.1115 42.9294 37.1375C42.2664 37.2025 41.6684 37.2285 41.2914 37.2285L41.4734 38.8925C41.8114 38.8405 42.6174 38.7105 43.0334 38.6585C43.2544 38.6325 43.5534 38.6065 43.9044 38.5675C43.9044 39.7765 43.9044 41.0375 43.9174 41.5965C43.9824 43.8455 44.3854 44.5475 47.7524 44.5475C48.9874 44.5475 50.5864 44.4435 51.4574 44.3395L51.5224 42.5715C50.5474 42.7405 48.9094 42.8965 47.6354 42.8965C45.6854 42.8965 45.5684 42.6105 45.5424 41.3365C45.5164 40.7775 45.5294 39.5815 45.5424 38.3855C46.6474 38.2685 47.9214 38.1515 49.0784 38.0605C49.0654 38.6845 49.0264 39.2825 48.9744 39.6335C48.9484 39.8805 48.8314 39.9325 48.5714 39.9325C48.3114 39.9325 47.7784 39.8545 47.3754 39.7635L47.3364 41.2065C47.7914 41.2715 48.8314 41.4015 49.2994 41.4015C49.9624 41.4015 50.2874 41.2325 50.4304 40.5435C50.5344 39.9975 50.5864 38.9315 50.6254 37.9435C51.0024 37.9175 51.3404 37.9045 51.6264 37.8915C51.9644 37.8785 52.6534 37.8655 52.8744 37.8785V36.2795C52.4974 36.3185 51.9904 36.3445 51.6264 36.3705C51.3274 36.3835 51.0024 36.4095 50.6514 36.4355C50.6644 36.0065 50.6644 35.5385 50.6774 35.0315C50.6904 34.6805 50.7294 34.1085 50.7554 33.9005Z" fill="black"/>
<path d="M15.3062 18.6096L24.0823 9.50781" stroke="#2861A3" stroke-width="2.15187"/>
<path d="M40.6246 18.6083H15.3418V1.41602" stroke="#2861A3" stroke-width="2.15187" stroke-linecap="square"/>
<path d="M40.6252 1.41602V18.6083" stroke="#218A6E" stroke-width="2.15187" stroke-linecap="square" stroke-linejoin="round"/>
<path d="M15.7078 1.85742L27.9831 12.544L40.2584 1.85742" stroke="#EC6D88" stroke-width="2.15187" stroke-linecap="round"/>
<path d="M15.3418 1.41602H40.6246" stroke="#EC6D88" stroke-width="2.15187" stroke-linecap="square"/>
<path d="M39.8567 17.7929L33.1062 10.7168" stroke="#218A6E" stroke-width="2.15187" stroke-linecap="square" stroke-linejoin="round"/>
</svg>
