<svg width="111" height="110" viewBox="0 0 111 110" fill="none" xmlns="http://www.w3.org/2000/svg">
<rect x="0.882812" width="109.441" height="109.441" rx="24" fill="#FFE600"/>
<path d="M32.7954 74.3527H30.8634C30.9054 74.6047 30.9614 75.2907 30.9614 75.5847C30.9614 75.8227 30.9614 76.2287 30.9474 76.7187C30.6674 76.7327 30.3874 76.7467 30.1354 76.7467C29.6314 76.7467 29.0294 76.7327 28.2034 76.6347L28.2314 78.3287C28.7074 78.3847 29.2534 78.3987 30.1914 78.3987C30.4154 78.3987 30.6674 78.3847 30.9334 78.3707C30.9334 78.7627 30.9334 79.1547 30.9334 79.5467C30.9334 79.8687 30.9334 80.2047 30.9474 80.5407C29.2254 81.2827 27.8254 82.5567 27.8254 83.7747C27.8254 85.2587 29.7434 86.4347 31.1014 86.4347C32.0254 86.4347 32.6414 85.9727 32.6414 84.2367C32.6414 83.7607 32.6134 82.6687 32.5854 81.5627C33.4394 81.3107 34.3494 81.1707 35.2174 81.1707C36.4354 81.1707 37.2754 81.7307 37.2754 82.6827C37.2754 83.7047 36.3794 84.2647 35.2454 84.4747C34.7554 84.5587 34.1534 84.5727 33.5234 84.5727L34.1674 86.3787C34.7414 86.3367 35.3574 86.2947 36.0014 86.1547C38.2274 85.5947 39.0954 84.3487 39.0954 82.6967C39.0954 80.7647 37.4014 79.6447 35.2454 79.6447C34.4754 79.6447 33.5094 79.7707 32.5574 80.0087C32.5574 79.8267 32.5574 79.6587 32.5574 79.4907C32.5574 79.0847 32.5574 78.6507 32.5714 78.2307C33.4814 78.1187 34.4474 77.9787 35.2454 77.7967L35.2034 76.0607C34.4754 76.2707 33.5514 76.4527 32.6274 76.5647C32.6414 76.2147 32.6554 75.8787 32.6694 75.5707C32.6974 75.2067 32.7534 74.6047 32.7954 74.3527ZM36.7854 75.8647L36.0154 77.2227C36.8834 77.6427 38.7174 78.6927 39.3894 79.2667L40.2294 77.8387C39.4874 77.3067 37.8634 76.3827 36.7854 75.8647ZM29.5474 83.7047C29.5474 83.2147 30.1214 82.6407 30.9754 82.1787C31.0034 82.9347 31.0174 83.5787 31.0174 83.9287C31.0174 84.4047 30.8214 84.5167 30.5694 84.5167C30.2054 84.5167 29.5474 84.1387 29.5474 83.7047ZM45.6334 75.6687V76.4247H43.4914V75.6687H45.6334ZM43.4914 78.3427V77.5447H45.6334V78.3427H43.4914ZM47.1874 79.6027V74.3947H41.8394V86.9387H43.4914V79.6027H47.1874ZM48.7974 81.9407V83.5927H46.4874V81.9407H48.7974ZM50.3514 84.9647V80.5687H44.9334V85.7487H46.4874V84.9647H50.3514ZM49.7354 78.3567V77.5447H51.9474V78.3567H49.7354ZM51.9474 75.6547V76.4247H49.7354V75.6547H51.9474ZM53.6274 74.3947H48.1534V79.6167H51.9474V84.9227C51.9474 85.1747 51.8494 85.2587 51.5834 85.2587C51.3174 85.2727 50.3654 85.2867 49.5534 85.2307C49.7914 85.6787 50.0574 86.4627 50.1134 86.9387C51.4014 86.9387 52.2834 86.8967 52.8574 86.6167C53.4454 86.3507 53.6274 85.8747 53.6274 84.9507V74.3947ZM64.4774 82.6827V84.9647H58.9474V82.6827H64.4774ZM57.3094 86.9527H58.9474V86.4347H64.4774V86.9527H66.1854V81.2127H57.3094V86.9527ZM58.8634 78.3567C60.0114 77.4467 60.9914 76.4527 61.6494 75.5147C62.3214 76.4387 63.3574 77.4467 64.5194 78.3567H58.8634ZM60.7114 73.8767C59.6614 75.5847 57.4214 77.6987 55.0134 78.8607C55.3774 79.2107 55.8394 79.8127 56.0634 80.2187C56.8054 79.8127 57.5474 79.3507 58.2334 78.8467V79.8267H65.2054V78.8607C65.9054 79.3647 66.6334 79.8267 67.3474 80.1907C67.6414 79.6727 68.0194 79.1267 68.4254 78.6927C66.1994 77.7967 63.9314 76.0187 62.4334 73.8767H60.7114ZM79.4014 74.7307H77.5254C77.5674 75.0107 77.6234 75.6687 77.6234 76.0187V77.6007C76.3494 77.7127 74.9914 77.8387 73.8014 77.9507C73.8014 77.4047 73.8154 76.9287 73.8154 76.6067C73.8154 76.0187 73.8294 75.6267 73.8994 75.1507H71.9254C71.9954 75.6547 72.0374 76.1307 72.0374 76.7047C72.0374 76.9427 72.0374 77.4607 72.0374 78.1187C71.5894 78.1607 71.2254 78.1887 70.9734 78.2167C70.2594 78.2867 69.6154 78.3147 69.2094 78.3147L69.4054 80.1067C69.7694 80.0507 70.6374 79.9107 71.0854 79.8547C71.3234 79.8267 71.6454 79.7987 72.0234 79.7567C72.0234 81.0587 72.0234 82.4167 72.0374 83.0187C72.1074 85.4407 72.5414 86.1967 76.1674 86.1967C77.4974 86.1967 79.2194 86.0847 80.1574 85.9727L80.2274 84.0687C79.1774 84.2507 77.4134 84.4187 76.0414 84.4187C73.9414 84.4187 73.8154 84.1107 73.7874 82.7387C73.7594 82.1367 73.7734 80.8487 73.7874 79.5607C74.9774 79.4347 76.3494 79.3087 77.5954 79.2107C77.5814 79.8827 77.5394 80.5267 77.4834 80.9047C77.4554 81.1707 77.3294 81.2267 77.0494 81.2267C76.7694 81.2267 76.1954 81.1427 75.7614 81.0447L75.7194 82.5987C76.2094 82.6687 77.3294 82.8087 77.8334 82.8087C78.5474 82.8087 78.8974 82.6267 79.0514 81.8847C79.1634 81.2967 79.2194 80.1487 79.2614 79.0847C79.6674 79.0567 80.0314 79.0427 80.3394 79.0287C80.7034 79.0147 81.4454 79.0007 81.6834 79.0147V77.2927C81.2774 77.3347 80.7314 77.3627 80.3394 77.3907C80.0174 77.4047 79.6674 77.4327 79.2894 77.4607C79.3034 76.9987 79.3034 76.4947 79.3174 75.9487C79.3314 75.5707 79.3734 74.9547 79.4014 74.7307Z" fill="black"/>
<path d="M38.8828 54.0007L50.6236 41.8242" stroke="#2861A3" stroke-width="3"/>
<path d="M72.7552 54H38.9316V31" stroke="#2861A3" stroke-width="3" stroke-linecap="square"/>
<path d="M72.7559 31V54" stroke="#218A6E" stroke-width="3" stroke-linecap="square" stroke-linejoin="round"/>
<path d="M39.4219 31.5859L55.8439 45.8825L72.2659 31.5859" stroke="#EC6D88" stroke-width="3" stroke-linecap="round"/>
<path d="M38.9316 31H72.7552" stroke="#EC6D88" stroke-width="3" stroke-linecap="square"/>
<path d="M71.7262 52.9079L62.6953 43.4414" stroke="#218A6E" stroke-width="3" stroke-linecap="square" stroke-linejoin="round"/>
</svg>
