<svg width="201" height="51" viewBox="0 0 201 51" fill="none" xmlns="http://www.w3.org/2000/svg">
<path d="M55.7837 43.0842C55.643 42.3083 55.643 42.3083 55.5309 42.0086L56.9994 41.7754C57.0092 42.0744 57.0456 42.3454 57.1395 42.8503L57.2522 43.4028L58.8985 43.15C59.5063 43.0562 59.7219 43.0093 60.0861 42.8973L60.3109 44.2439C59.8992 44.2817 59.8992 44.2817 59.1317 44.3931L57.4854 44.655L57.7382 46.0211L59.6092 45.7215C60.2269 45.6276 60.4796 45.5723 60.8627 45.4504L61.0966 46.7971C60.7689 46.816 60.7689 46.816 59.8711 46.9658L57.9721 47.2557L58.234 48.6492C58.3649 49.3789 58.4112 49.5854 58.533 49.9594L57.0176 50.2122C57.0085 49.9405 56.9518 49.5007 56.8404 48.902L56.5785 47.4713L54.5576 47.7893C53.9778 47.8831 53.7628 47.9196 53.3791 48.0323L53.1543 46.6759C53.538 46.6661 53.7713 46.6381 54.3895 46.5449L56.3538 46.2361L56.1108 44.8615L54.6514 45.0856C53.9967 45.1885 53.8937 45.2166 53.3797 45.3384L53.1647 43.9729C53.5765 43.9631 53.7445 43.9448 54.4273 43.8419L55.886 43.6171L55.7837 43.0842Z" fill="black"/>
<path d="M64.4236 44.293C64.3395 43.8441 64.3115 43.7125 64.2183 43.4604L65.537 43.2637C65.5552 43.5731 65.5832 43.8246 65.6392 44.1152L65.7519 44.6676L68.4367 44.2188C68.8296 44.153 68.9416 44.1249 69.1195 44.0318L69.8772 44.7237C69.7931 44.8455 69.7462 44.9204 69.6433 45.2005C69.2413 46.2573 68.7077 46.9869 67.7911 47.7446C67.3891 47.3329 67.2204 47.2019 66.7624 46.9687C67.436 46.5381 67.9129 46.0325 68.2686 45.3784L65.9578 45.7804L66.5474 48.8958C66.6595 49.4567 66.6966 49.6066 66.8184 49.9707L65.434 50.2144C65.406 49.8489 65.3682 49.5968 65.2848 49.129L64.7239 45.9862L64.1252 46.0892C63.6287 46.1732 63.4796 46.211 63.1427 46.3139L62.918 45.0787C63.245 45.0689 63.4326 45.0507 63.9656 44.9569L64.5265 44.8722L64.4236 44.293Z" fill="black"/>
<path d="M72.7558 42.4375C73.963 43.1672 74.496 43.5607 75.2439 44.2525L74.2992 45.478C73.5233 44.6545 72.7376 44.0376 71.8398 43.5411L72.7558 42.4375ZM71.877 48.237C72.7376 48.181 73.8041 47.9282 74.6647 47.5543C75.8524 47.0585 76.6856 46.3568 77.4153 45.2624C77.8361 44.6356 78.0883 44.1307 78.3599 43.4011C78.7997 43.9157 78.9678 44.074 79.5476 44.4858C78.6212 46.4878 77.5176 47.723 75.8901 48.583C75.1422 48.9765 74.066 49.3596 73.1676 49.5563C72.9343 49.6026 72.9343 49.6026 72.7558 49.6403C72.5408 49.6866 72.4848 49.7062 72.2881 49.7713L71.877 48.237Z" fill="black"/>
<path d="M86.8412 42.6341C86.9532 42.6341 87.0659 42.6341 87.2431 42.6159C87.2809 42.0732 87.7298 41.6523 88.2725 41.6523C88.8523 41.6523 89.311 42.1208 89.311 42.6908C89.311 43.2615 88.8523 43.7293 88.2816 43.7293C88.2725 43.7293 88.2536 43.7293 88.2445 43.7293L88.2067 43.8602C87.8132 45.4316 87.2151 46.648 86.3539 47.6486C85.4939 48.6591 84.4365 49.3888 82.8274 50.1087C82.5186 49.5099 82.3694 49.3047 81.8364 48.7705C82.6502 48.5177 83.1648 48.2747 83.8476 47.8447C85.288 46.9281 86.2047 45.6466 86.6353 43.9443H82.5381C81.7706 43.9443 81.471 43.9534 81.0879 44.0003V42.5683C81.4899 42.6244 81.7798 42.6341 82.5563 42.6341H86.8412ZM87.8145 42.6902C87.8145 42.9429 88.0204 43.1488 88.2731 43.1488C88.5259 43.1488 88.7311 42.9429 88.7311 42.6902C88.7311 42.4374 88.5259 42.2322 88.2731 42.2322C88.0204 42.2322 87.8145 42.4374 87.8145 42.6902Z" fill="black"/>
<path d="M90.752 44.3655C91.1539 44.4222 91.3324 44.4313 92.1644 44.4313H96.6733C97.216 44.4313 97.3098 44.4222 97.5815 44.3375L98.2082 45.0294C98.1053 45.1981 98.0675 45.2913 97.9463 45.619C97.4694 46.9936 96.7489 48.0699 95.8225 48.8178C95.1866 49.3325 94.5508 49.6595 93.2686 50.1644C93.0159 49.6126 92.8856 49.4165 92.3891 48.864C93.5208 48.5748 94.2322 48.2471 94.9247 47.7044C95.6075 47.1623 96.0283 46.5819 96.403 45.675H92.1468C91.3793 45.675 91.0992 45.6841 90.7526 45.7213V44.3655H90.752ZM91.5376 42.0645C91.8751 42.1211 92.1833 42.1394 92.8282 42.1394H95.8967C96.6544 42.1394 96.8323 42.1296 97.1691 42.0645V43.4209C96.8512 43.3831 96.7105 43.3746 95.915 43.3746H92.8002C92.2015 43.3746 91.8276 43.3928 91.5376 43.4209V42.0645Z" fill="black"/>
<path d="M106.838 50.0065C106.042 49.0156 105.107 48.0983 104.059 47.2846C103.226 48.2755 101.991 49.2019 100.57 49.8945C100.261 49.3055 100.131 49.127 99.6719 48.6501C100.495 48.3231 101.047 48.0234 101.749 47.5094C102.778 46.7608 103.601 45.8533 104.2 44.8057C104.322 44.6005 104.481 44.2637 104.696 43.7868L101.964 43.833C101.189 43.8519 101.011 43.861 100.655 43.9177L100.637 42.4955C100.936 42.5418 101.198 42.5515 101.777 42.5515C101.815 42.5515 101.89 42.5515 101.955 42.5515L105.145 42.4955C105.66 42.4955 105.707 42.4857 105.931 42.3828L106.651 43.1307C106.529 43.2617 106.455 43.3835 106.342 43.6552C105.894 44.7028 105.472 45.4604 104.929 46.1992C106.137 47.0598 106.37 47.2657 107.97 48.7908L106.838 50.0065Z" fill="black"/>
<path d="M111.187 42.5326C111.131 42.898 111.103 43.431 111.103 44.0759C111.103 46.3125 111.449 47.9679 111.927 47.9679C112.049 47.9679 112.16 47.837 112.263 47.5842C112.488 47.0695 112.647 46.5086 112.759 45.919C113.143 46.377 113.33 46.5555 113.863 46.9295C113.367 48.7627 112.759 49.5953 111.898 49.5953C111.215 49.5953 110.663 49.0996 110.271 48.1269C109.887 47.1725 109.756 45.9848 109.7 43.1502C109.69 42.8133 109.69 42.7384 109.662 42.5234L111.187 42.5326ZM115.555 42.9072C116.753 44.3476 117.436 46.0128 117.688 48.136L116.276 48.6598C116.238 47.7621 116.032 46.7516 115.705 45.863C115.387 44.9835 114.938 44.1886 114.358 43.4681L115.555 42.9072Z" fill="black"/>
<path d="M120.949 42.5326C120.893 42.898 120.865 43.431 120.865 44.0759C120.865 46.3125 121.211 47.9679 121.688 47.9679C121.81 47.9679 121.922 47.837 122.025 47.5842C122.25 47.0695 122.409 46.5086 122.521 45.919C122.905 46.377 123.092 46.5555 123.625 46.9295C123.129 48.7627 122.521 49.5953 121.66 49.5953C120.977 49.5953 120.425 49.0996 120.032 48.1269C119.649 47.1725 119.518 45.9848 119.462 43.1502C119.452 42.8133 119.452 42.7384 119.424 42.5234L120.949 42.5326ZM125.317 42.9072C126.515 44.3476 127.198 46.0128 127.45 48.136L126.037 48.6598C126 47.7621 125.794 46.7516 125.467 45.863C125.149 44.9835 124.7 44.1886 124.12 43.4681L125.317 42.9072Z" fill="black"/>
<path d="M128.752 43.7489C129.107 43.7112 129.294 43.674 129.912 43.5431C131.867 43.1313 132.559 43.029 133.494 43.029C134.421 43.029 135.168 43.216 135.711 43.59C136.422 44.076 136.815 44.8623 136.815 45.7783C136.815 47.1067 136.047 48.2299 134.691 48.8937C133.802 49.3237 132.961 49.5205 131.295 49.6886C131.146 49.0807 131.052 48.8371 130.715 48.2481C131.959 48.2103 132.792 48.0989 133.447 47.8742C134.129 47.6494 134.662 47.2852 134.99 46.8174C135.205 46.5178 135.307 46.1901 135.307 45.807C135.307 45.4135 135.185 45.0956 134.942 44.8434C134.624 44.5164 134.166 44.3665 133.52 44.3665C132.548 44.3665 131.332 44.5815 129.835 45.0311C129.592 45.106 129.292 45.218 129.059 45.3119L128.752 43.7489ZM135.702 41.9248C136.058 42.3828 136.226 42.6636 136.478 43.1685L135.654 43.5059C135.43 43.0095 135.187 42.6258 134.869 42.2238L135.702 41.9248ZM136.796 41.4941C137.096 41.8499 137.395 42.3085 137.582 42.7202L136.787 43.0662C136.553 42.5795 136.356 42.2518 136.01 41.8036L136.796 41.4941Z" fill="black"/>
<path d="M142.376 41.8692C142.339 41.9631 142.339 41.9631 142.246 42.3741C142.227 42.4582 142.18 42.6634 142.115 42.9911C142.077 43.1312 142.077 43.1312 142.059 43.225C142.667 43.1683 143.134 43.094 143.471 42.9813L143.499 44.2719C143.397 44.2817 143.359 44.2817 143.21 44.3097C142.882 44.3566 142.499 44.3938 141.75 44.4589C141.385 45.6381 141.161 46.2459 140.731 47.1717C140.516 47.6303 140.432 47.7984 140.077 48.4721C139.954 48.706 139.954 48.7059 139.899 48.8278L138.617 48.1164C139.29 47.2277 139.927 45.9182 140.376 44.496C140.095 44.496 140.095 44.496 139.871 44.5058C139.824 44.5058 139.777 44.5058 139.759 44.5058C139.656 44.5058 139.656 44.5058 139.338 44.4869C139.3 44.4869 139.263 44.4869 138.982 44.4869V43.2152C139.319 43.281 139.731 43.309 140.292 43.309C140.348 43.309 140.525 43.2993 140.704 43.2901C140.872 42.5891 140.947 42.1305 140.957 41.7285L142.376 41.8692ZM146.53 49.5868C146.24 49.231 145.716 48.8011 145.202 48.4916C145.192 48.9314 145.108 49.2122 144.884 49.4929C144.556 49.8949 143.92 50.1288 143.153 50.1288C141.872 50.1288 141.03 49.4643 141.03 48.4636C141.03 47.7528 141.479 47.1541 142.218 46.8922C142.499 46.7893 142.788 46.7521 143.219 46.7521C143.49 46.7521 143.649 46.7704 143.901 46.8082C143.864 46.4342 143.855 46.1717 143.855 45.9006C143.855 45.4798 143.873 45.2088 143.929 44.8622L145.23 44.9273C145.127 45.3019 145.108 45.47 145.108 45.8537C145.108 46.2746 145.126 46.6016 145.192 47.1163C145.781 47.3782 146.146 47.5841 146.604 47.93C146.726 48.0147 146.81 48.0792 146.97 48.2108C147.054 48.2766 147.054 48.2766 147.129 48.3327L146.53 49.5868ZM143.191 47.8558C142.676 47.8558 142.33 48.0799 142.33 48.4076C142.33 48.7444 142.62 48.9503 143.116 48.9503C143.677 48.9503 143.948 48.7164 143.948 48.2584C143.948 48.1737 143.939 47.9965 143.929 47.9965C143.639 47.8929 143.452 47.8558 143.191 47.8558ZM146.586 45.2459C145.734 44.6941 144.883 44.2921 143.798 43.9182L144.462 42.8328C145.586 43.2348 146.333 43.5807 147.185 44.0862L146.586 45.2459Z" fill="black"/>
<path d="M15.6794 19.0699C14.3822 20.3207 12.691 20.8419 10.7 20.8419C5.909 20.8419 4.20145 17.8776 4.20145 15.1036C4.20145 11.8598 6.59631 9.50537 9.8961 9.50537C12.347 9.50537 13.5698 10.3432 14.136 11.1263H14.6669V6.91244C13.4148 6.62644 11.8278 6.42383 10.5052 6.42383C7.64195 6.42383 5.04252 7.24861 3.18578 8.74638C1.10167 10.4279 0 12.8853 0 15.8541C0 20.6595 4.44119 24.4244 10.1111 24.4244C11.7268 24.4244 13.7431 23.9879 15.2748 23.3521L16.3087 19.0705H15.6794V19.0699Z" fill="black"/>
<path d="M35.8009 21.1013C34.8354 21.3156 34.1076 21.072 33.7461 20.7397C33.1825 20.2205 33.1389 19.0849 33.1389 17.5383V12.1596C33.1239 10.3231 32.6483 8.97189 31.6848 8.02723C30.5349 6.90016 28.8599 6.37245 26.1321 6.42327C24.3627 6.45649 22.5281 7.14772 21.8799 7.65002L20.9476 11.2482L21.4883 11.3348C22.6506 9.96736 24.6363 9.51979 26.1465 9.55758C26.6722 9.57126 29.2964 9.64488 29.2964 11.3726C29.2964 12.7277 27.7902 13.0209 25.2637 13.4971C22.2981 14.0568 18.5801 14.847 18.5801 18.8641C18.5801 22.085 21.3372 24.4232 24.6604 24.4232C25.6135 24.4232 26.5777 24.2838 27.3465 24.0818L28.2397 20.6114H27.7595C27.1465 21.13 26.5849 21.3456 25.7914 21.3456C24.7568 21.3456 22.6597 21.0185 22.6597 18.8282C22.6597 16.8927 24.3308 16.6392 26.1015 16.3715C27.3582 16.1813 28.4091 15.8946 29.2957 15.4985V20.1677C29.2957 23.7659 32.1603 24.345 34.7669 24.4297L36.0908 21.3195L35.8009 21.1013Z" fill="black"/>
<path d="M200.709 21.1013C199.744 21.3156 199.016 21.072 198.654 20.7397C198.091 20.2205 198.047 19.0849 198.047 17.5383V12.1596C198.032 10.3231 197.556 8.97189 196.593 8.02723C195.442 6.90016 193.767 6.37245 191.04 6.42327C189.271 6.45649 187.436 7.14772 186.787 7.65002L185.856 11.2482L186.397 11.3348C187.559 9.96736 189.545 9.51979 191.055 9.55758C191.58 9.57126 194.205 9.64488 194.205 11.3726C194.205 12.7277 192.698 13.0209 190.172 13.4971C187.206 14.0568 183.488 14.847 183.488 18.8641C183.488 22.085 186.245 24.4232 189.569 24.4232C190.522 24.4232 191.486 24.2838 192.254 24.0818L193.148 20.6114H192.668C192.055 21.13 191.493 21.3456 190.7 21.3456C189.665 21.3456 187.569 21.0185 187.569 18.8282C187.569 16.8927 189.24 16.6392 191.01 16.3715C192.267 16.1813 193.317 15.8946 194.205 15.4985V20.1677C194.205 23.7659 197.069 24.345 199.676 24.4297L201 21.3195L200.709 21.1013Z" fill="black"/>
<path d="M66.4413 23.3475C65.027 22.8947 64.8419 21.5247 64.8602 20.1429C64.8621 19.9904 64.8641 14.1694 64.8641 14.1694C64.8641 8.88515 62.8243 6.42383 58.443 6.42383C56.0449 6.42383 54.166 7.40953 52.981 9.28125C51.5855 7.23232 50.0669 6.42383 47.6883 6.42383C45.4615 6.42383 44.2856 7.18867 43.2106 8.61674V6.42383H42.7155C42.1891 6.86554 41.3174 6.88964 40.5903 6.88964H38.0059V7.45709C39.3049 8.07405 39.3929 9.23304 39.3733 10.5888C39.3707 10.7621 39.3707 20.0497 39.3733 20.223C39.3929 21.5989 39.2606 22.6771 38.0059 23.3905V23.958H44.537V23.3957C43.3109 22.6543 43.1852 21.5892 43.2054 20.2328C43.208 20.0562 43.2106 14.7922 43.2106 14.7922C43.2106 12.3823 43.9761 9.51058 46.6843 9.51058C48.8166 9.51058 50.1945 11.7335 50.1945 15.1746C50.1945 15.1746 50.1965 20.0497 50.1991 20.2236C50.2193 21.5996 50.087 22.6778 48.8323 23.3912V23.9586H55.3993V23.3912C54.1445 22.6784 54.0116 21.6002 54.0318 20.2236C54.0344 20.0497 54.037 14.5583 54.037 14.5583C54.037 10.0337 56.5029 9.51058 57.7023 9.51058C60.0972 9.51058 61.0216 11.1198 61.0216 15.0658C61.0216 15.0658 61.0242 20.0497 61.0262 20.2236C61.0464 21.5996 60.9135 22.6778 59.6594 23.3912V23.9586H66.4413V23.3475Z" fill="black"/>
<path d="M79.4078 6.42383C77.6299 6.42383 75.263 7.07206 73.8206 8.48123V6.42383H73.3216C72.8095 6.84795 71.8968 6.88964 71.2714 6.88964H68.6152V7.46035C69.8648 8.14245 70.0023 9.21611 69.9821 10.5881C69.9801 10.7627 69.9801 27.4324 69.9821 27.6063C70.0023 28.962 69.8693 30.0253 68.6152 30.7374V31.3048H75.1822V30.7374C73.9281 30.0246 73.7952 28.9614 73.8148 27.6063C73.8174 27.4324 73.8206 15.3114 73.8206 15.3114C73.8206 13.8782 73.9008 12.2625 74.8656 11.2312C75.8044 10.192 77.065 9.64218 78.5113 9.64218C82.344 9.64218 83.7043 12.8729 83.7043 15.6385C83.7043 18.1076 83.0574 21.1409 79.2866 21.1409C77.9413 21.1409 77.0644 21.0139 75.8617 20.1116L75.5849 20.1982L76.0409 23.7462C76.8807 24.0752 78.3055 24.4238 79.2931 24.4238C84.2835 24.4238 87.9051 20.5637 87.9051 15.2443C87.9064 10.1334 84.3324 6.42383 79.4078 6.42383Z" fill="black"/>
<path d="M110.017 5.32117C111.341 5.32117 112.458 4.15371 112.458 2.77255C112.458 1.38684 111.363 0.259766 110.017 0.259766C108.757 0.259766 107.396 1.17967 107.396 2.66506C107.396 4.15436 108.548 5.32117 110.017 5.32117Z" fill="black"/>
<path d="M113.425 23.3906C112.17 22.6779 112.038 21.6003 112.058 20.2237C112.06 20.0491 112.063 6.31641 112.063 6.31641H111.555C110.942 6.88125 110.129 6.88972 109.334 6.88972H106.857V7.45716C108.112 8.16989 108.244 9.23312 108.225 10.5882C108.222 10.7615 108.222 20.0491 108.225 20.2231C108.244 21.599 108.112 22.6772 106.857 23.3899V23.9574H113.424V23.3906H113.425Z" fill="black"/>
<path d="M119.702 5.32117C121.026 5.32117 122.143 4.15371 122.143 2.77255C122.143 1.38684 121.048 0.259766 119.702 0.259766C118.442 0.259766 117.082 1.17967 117.082 2.66506C117.083 4.15436 118.233 5.32117 119.702 5.32117Z" fill="black"/>
<path d="M123.111 23.3906C121.856 22.6779 121.724 21.6003 121.744 20.2237C121.746 20.0491 121.748 6.31641 121.748 6.31641H121.24C120.628 6.88125 119.814 6.88972 119.02 6.88972H116.543V7.45716C117.797 8.16989 117.93 9.23312 117.91 10.5882C117.908 10.7615 117.908 20.0491 117.91 20.2231C117.93 21.599 117.798 22.6772 116.543 23.3899V23.9574H123.11V23.3906H123.111Z" fill="black"/>
<path d="M141.677 19.2155C140.164 20.6527 138.958 21.252 136.759 20.9706C136.759 20.9706 133.164 20.5686 131.678 21.1041L141.311 7.37989V6.89062H127.755L125.91 11.4393H126.679C127.542 10.3468 129.347 9.67769 131.28 9.83535L134.853 10.0836L125.174 23.4671V23.9596H140.839L142.344 19.2161H141.677V19.2155Z" fill="black"/>
<path d="M161.323 23.3019C160.078 22.6511 160.092 21.6628 160.112 20.2953C160.115 20.1214 160.117 6.42383 160.117 6.42383H159.603C158.994 6.9385 158.263 6.91505 157.491 6.89681C157.335 6.8929 154.913 6.88964 154.913 6.88964V7.45383C156.171 8.19718 156.3 9.22327 156.28 10.6494C156.278 10.8266 156.275 16.7141 156.275 16.7141C156.275 19.307 154.715 21.1188 152.48 21.1188C149.845 21.1188 148.721 19.6086 148.721 16.0691V6.42383H148.215C147.67 6.92808 146.673 6.88964 146.136 6.88964H143.516V7.45709C144.823 8.11704 144.903 9.24803 144.882 10.624C144.88 10.7986 144.877 16.6782 144.877 16.6782C144.877 21.8901 147.013 24.4238 151.404 24.4238C153.626 24.4238 155.025 23.8179 156.275 22.2413V23.9573H161.48V23.3827L161.323 23.3019Z" fill="black"/>
<path d="M182.045 23.3905C180.791 22.6778 180.658 21.6146 180.678 20.2588C180.681 20.0855 180.684 14.2339 180.685 14.0821C180.693 12.4442 180.778 10.7035 179.737 9.02392C178.513 7.05121 176.814 6.42383 174.246 6.42383C172.303 6.42383 170.607 7.11375 169.285 8.63954V6.42383H168.81C168.054 6.88573 167.25 6.88964 166.485 6.88964H164.08V7.45709C165.335 8.16982 165.467 9.24803 165.448 10.624C165.445 10.7986 165.445 20.049 165.448 20.223C165.467 21.5989 165.335 22.6771 164.08 23.3905V23.958H170.647V23.3905C169.393 22.6778 169.26 21.6146 169.28 20.2595C169.283 20.0862 169.285 13.3811 169.285 13.3811C169.285 11.3979 170.471 9.54185 172.986 9.37116C175.568 9.19591 176.84 10.5901 176.84 14.5785C176.84 14.5785 176.843 20.0777 176.845 20.2484C176.865 21.6107 176.733 22.6784 175.478 23.3912V23.9586H182.045V23.3905Z" fill="black"/>
<path d="M102.551 8.85937C102.551 8.33102 102.594 7.80331 102.679 7.29124L102.747 6.88081H98.0704V2.20508L97.6599 2.27218C96.6338 2.44157 95.5491 2.44157 94.5237 2.27218L94.1139 2.20508V6.88081H89.4375L89.5046 7.29124C89.5893 7.80331 89.6323 8.33102 89.6323 8.85937C89.6323 9.38838 89.5893 9.91544 89.5046 10.4282L89.4375 10.8379H94.1139V15.5143L94.5243 15.4466C95.5491 15.2772 96.6351 15.2772 97.6606 15.4466L98.071 15.5143V10.8379H102.747L102.68 10.4282C102.594 9.91544 102.551 9.38773 102.551 8.85937Z" fill="#004F25"/>
</svg>
