<svg width="26" height="26" viewBox="0 0 26 26" fill="none" xmlns="http://www.w3.org/2000/svg">
<path d="M4.67773 4.387C6.80673 2.258 9.80673 1 13.0007 1C19.6777 1 25.0007 6.419 25.0007 13C25.0007 19.677 19.5817 25 13.0007 25" stroke="#EC6D88" stroke-width="2" stroke-linejoin="round"/>
<path d="M13 25C6.323 25 1 19.581 1 13" stroke="#2861A3" stroke-width="2" stroke-linejoin="round"/>
<path d="M1 12.9997C1 9.61272 2.452 6.51572 4.677 4.38672" stroke="#218A6E" stroke-width="2" stroke-linejoin="round"/>
<path d="M13 18.4847V11.7227" stroke="#2861A3" stroke-width="2" stroke-linecap="round" stroke-linejoin="round"/>
<path d="M13 9.32422C13.8284 9.32422 14.5 8.65265 14.5 7.82422C14.5 6.99579 13.8284 6.32422 13 6.32422C12.1716 6.32422 11.5 6.99579 11.5 7.82422C11.5 8.65265 12.1716 9.32422 13 9.32422Z" fill="#2861A3"/>
</svg>
