<svg width="30" height="25" viewBox="0 0 30 25" fill="none" xmlns="http://www.w3.org/2000/svg">
<path d="M14.9355 1C14.9355 1 12.4155 5.864 9.09153 8.381C6.96153 9.994 4.96053 11.526 4.04553 12.918C2.40853 15.406 2.66453 18.196 2.91353 19.051" stroke="#EC6D88" stroke-width="2.0001" stroke-miterlimit="10" stroke-linecap="round" stroke-linejoin="round"/>
<path d="M9.34766 19.0509C9.34766 15.9639 11.8507 13.4609 14.9377 13.4609C18.0247 13.4609 20.5277 15.9639 20.5277 19.0509" stroke="#218A6E" stroke-width="2" stroke-miterlimit="10" stroke-linecap="round" stroke-linejoin="round"/>
<path d="M14.9375 1C14.9375 1 17.4575 5.864 20.7815 8.381C22.9115 9.994 24.9125 11.526 25.8275 12.918C27.4645 15.406 27.2085 18.196 26.9595 19.051" stroke="#EC6D88" stroke-width="2.0001" stroke-miterlimit="10" stroke-linecap="round" stroke-linejoin="round"/>
<path d="M1 23.4238H28.873" stroke="#EC6D88" stroke-width="2.0001" stroke-miterlimit="10" stroke-linecap="round" stroke-linejoin="round"/>
<path d="M9.98047 22.4238H28.8755C29.4285 22.4238 29.8755 22.8718 29.8755 23.4238C29.8755 23.9758 29.4285 24.4238 28.8755 24.4238H9.98047V22.4238Z" fill="#2861A3"/>
</svg>
