<?xml version="1.0" encoding="utf-8"?>
<!-- Generator: Adobe Illustrator 26.1.0, SVG Export Plug-In . SVG Version: 6.00 Build 0)  -->
<svg version="1.1" id="レイヤー_1" xmlns="http://www.w3.org/2000/svg" xmlns:xlink="http://www.w3.org/1999/xlink" x="0px"
	 y="0px" width="30px" height="30px" viewBox="0 0 30 30" style="enable-background:new 0 0 30 30;" xml:space="preserve">
<style type="text/css">
	.st0{fill:url(#SVGID_1_);stroke:url(#SVGID_00000069380709825090842760000005531537501481521540_);stroke-miterlimit:10;}
	.st1{fill:#275C98;}
	.st2{fill:url(#SVGID_00000010991656687453683700000013764938792942012863_);}
</style>
<g>
	<g>
		<linearGradient id="SVGID_1_" gradientUnits="userSpaceOnUse" x1="3.5385" y1="15.3723" x2="26.5385" y2="15.3723">
			<stop  offset="0.2927" style="stop-color:#1F846A"/>
			<stop  offset="0.304" style="stop-color:#DD6A81"/>
			<stop  offset="0.3393" style="stop-color:#DD6A81"/>
			<stop  offset="0.5227" style="stop-color:#DD6A81"/>
		</linearGradient>
		
			<linearGradient id="SVGID_00000160177345619004327920000018305345763373228468_" gradientUnits="userSpaceOnUse" x1="3.0385" y1="15.3723" x2="27.0385" y2="15.3723">
			<stop  offset="0.2927" style="stop-color:#1F846A"/>
			<stop  offset="0.304" style="stop-color:#DD6A81"/>
			<stop  offset="0.3393" style="stop-color:#DD6A81"/>
			<stop  offset="0.5227" style="stop-color:#DD6A81"/>
		</linearGradient>
		
			<path style="fill:url(#SVGID_1_);stroke:url(#SVGID_00000160177345619004327920000018305345763373228468_);stroke-miterlimit:10;" d="
			M24.2,29.6H5.8c-1.3,0-2.3-1-2.3-2.3V3.4c0-1.3,1-2.3,2.3-2.3h9.4c0.6,0,1.2,0.2,1.6,0.7l9,9c0.4,0.4,0.7,1,0.7,1.6v14.9
			C26.5,28.6,25.5,29.6,24.2,29.6z M5.8,2C5.1,2,4.5,2.7,4.5,3.4v23.9c0,0.8,0.6,1.4,1.4,1.4h18.4c0.8,0,1.4-0.6,1.4-1.4V12.5
			c0-0.4-0.1-0.7-0.4-1l-9-9c-0.3-0.3-0.6-0.4-1-0.4H5.8z"/>
	</g>
</g>
<g>
	<g>
		<path class="st1" d="M22,18.9c0-0.1-0.1-0.3-0.2-0.4c-0.3-0.3-0.9-0.4-1.9-0.4c-0.7,0-1.4,0.1-2.3,0.2c-0.4-0.2-0.7-0.4-1-0.7
			c-0.8-0.7-1.5-1.8-1.9-2.9c0-0.1,0.1-0.2,0.1-0.3c0,0,0.5-2.6,0.3-3.4c0-0.1,0-0.2-0.1-0.2l0-0.1c-0.1-0.3-0.4-0.6-0.7-0.6l-0.2,0
			h0c-0.4,0-0.8,0.2-0.9,0.5c-0.3,1,0,2.5,0.5,4.5l-0.1,0.3c-0.4,0.9-0.8,1.8-1.2,2.6L12.3,18c-0.4,0.8-0.8,1.5-1.2,2.1l-0.4,0.2
			c0,0-0.6,0.3-0.8,0.4c-1.2,0.7-2.1,1.6-2.2,2.2c0,0.2,0,0.5,0.2,0.6l0.4,0.2c0.2,0.1,0.3,0.1,0.5,0.1c0.9,0,1.9-1.1,3.3-3.6
			c1.6-0.5,3.5-1,5.1-1.2c1.2,0.7,2.8,1.2,3.7,1.2c0.2,0,0.3,0,0.4,0c0.2-0.1,0.3-0.2,0.4-0.3C22,19.7,22.1,19.3,22,18.9z M8.7,23.3
			c0.2-0.4,0.8-1.3,1.7-2.1c0.1,0,0.2-0.2,0.3-0.3C9.7,22.4,9.1,23.1,8.7,23.3z M14.2,10.4c0.3,0,0.4,0.7,0.5,1.4
			c0,0.7-0.1,1.1-0.3,1.5c-0.2-0.5-0.2-1.3-0.2-1.9C14.1,11.5,14.1,10.4,14.2,10.4z M12.6,19.6c0.2-0.4,0.4-0.7,0.6-1.1
			c0.5-1,0.8-1.7,1.1-2.3c0.5,0.9,1.1,1.6,1.8,2.2c0.1,0.1,0.2,0.1,0.3,0.2C14.9,18.8,13.6,19.2,12.6,19.6z M21.5,19.5
			c-0.1,0.1-0.3,0.1-0.5,0.1c-0.5,0-1.2-0.2-2-0.6c0.3,0,0.7,0,0.9,0c0.5,0,0.7,0,1.2,0.1C21.6,19.2,21.6,19.4,21.5,19.5z"/>
	</g>
</g>
<g>
	<g>
		
			<linearGradient id="SVGID_00000047042936448121822140000010625050190944975524_" gradientUnits="userSpaceOnUse" x1="-23.9366" y1="-3.5788" x2="-1.4615" y2="-3.5788">
			<stop  offset="0" style="stop-color:#275C98"/>
			<stop  offset="0.2927" style="stop-color:#1F846A"/>
			<stop  offset="0.304" style="stop-color:#DD6A81"/>
			<stop  offset="0.3393" style="stop-color:#DD6A81"/>
			<stop  offset="0.5227" style="stop-color:#DD6A81"/>
		</linearGradient>
		<path style="fill:url(#SVGID_00000047042936448121822140000010625050190944975524_);" d="M-3.7,10.4h-18c-1.2,0-2.2-1-2.2-2.2
			v-23.4c0-1.2,1-2.2,2.2-2.2h9.1c0.6,0,1.2,0.2,1.6,0.7L-2.1-8c0.4,0.4,0.7,1,0.7,1.6V8.1C-1.5,9.3-2.5,10.4-3.7,10.4z M-21.7-16.6
			c-0.7,0-1.3,0.6-1.3,1.3V8.1c0,0.7,0.6,1.3,1.3,1.3h18c0.7,0,1.3-0.6,1.3-1.3V-6.4c0-0.4-0.1-0.7-0.4-1l-8.8-8.8
			c-0.3-0.3-0.6-0.4-1-0.4H-21.7z"/>
	</g>
</g>
<g>
	<g>
		<path class="st1" d="M-5.7,0.1c0-0.1-0.1-0.3-0.2-0.4c-0.3-0.3-0.9-0.4-1.9-0.4c-0.6,0-1.4,0-2.2,0.2c-0.4-0.2-0.7-0.4-1-0.7
			C-11.8-2-12.5-3-12.9-4.2c0-0.1,0-0.2,0.1-0.3c0,0,0.4-2.5,0.3-3.4c0-0.1,0-0.2-0.1-0.2l0-0.1c-0.1-0.3-0.4-0.6-0.7-0.6l-0.2,0h0
			c-0.4,0-0.8,0.2-0.8,0.5c-0.3,1,0,2.5,0.5,4.4L-14-3.5c-0.4,0.9-0.8,1.8-1.2,2.6l-0.1,0.1c-0.4,0.8-0.8,1.5-1.2,2.1l-0.4,0.2
			c0,0-0.6,0.3-0.8,0.4c-1.2,0.7-2,1.6-2.2,2.2c0,0.2,0,0.5,0.2,0.6l0.3,0.2C-19,5-18.9,5-18.7,5c0.9,0,1.9-1.1,3.3-3.5
			c1.6-0.5,3.4-1,5-1.2C-9.2,1-7.7,1.5-6.7,1.5c0.2,0,0.3,0,0.4,0c0.2,0,0.3-0.2,0.4-0.3C-5.7,0.9-5.6,0.5-5.7,0.1z M-18.9,4.4
			c0.2-0.4,0.8-1.3,1.7-2.1c0.1,0,0.2-0.2,0.3-0.3C-17.8,3.6-18.5,4.2-18.9,4.4z M-13.4-8.3c0.3,0,0.4,0.7,0.5,1.4
			c0,0.7-0.1,1.1-0.3,1.5c-0.2-0.5-0.2-1.3-0.2-1.8C-13.5-7.3-13.5-8.3-13.4-8.3z M-15,0.7c0.2-0.3,0.4-0.7,0.6-1.1
			c0.5-1,0.8-1.7,1.1-2.3c0.5,0.9,1.1,1.6,1.8,2.2c0.1,0.1,0.2,0.1,0.3,0.2C-12.7,0-14,0.3-15,0.7z M-6.2,0.6
			c-0.1,0.1-0.3,0.1-0.5,0.1c-0.5,0-1.1-0.2-2-0.6c0.3,0,0.7,0,0.9,0c0.5,0,0.7,0,1.2,0.1C-6.1,0.3-6.1,0.6-6.2,0.6z"/>
	</g>
</g>
</svg>
