<svg width="30" height="24" viewBox="0 0 30 24" fill="none" xmlns="http://www.w3.org/2000/svg">
<path d="M9.74414 10.1914L13.7911 12.0234" stroke="#2861A3" stroke-width="2" stroke-linecap="round"/>
<path d="M8.28125 13.6406L12.2333 15.4326" stroke="#2861A3" stroke-width="2" stroke-linecap="round"/>
<path d="M27.7929 10.1445L14.6319 21.2375C13.4099 22.2715 11.8119 22.8355 10.2129 22.8355" stroke="#218A6E" stroke-width="2" stroke-linecap="square" stroke-linejoin="round"/>
<path d="M9.192 22.8345H4.102C3.256 22.8345 2.41 22.6465 1.846 22.1765C1.282 21.7065 1 21.0485 1 20.3905C1 19.1685 1.846 17.8525 3.256 17.5705C3.256 17.5705 4.44 17.3595 5.617 16.7095C6.53 16.2055 7.22 15.3745 7.643 14.4215L10.213 8.63945L10.965 7.22845C11.153 6.94645 11.529 6.57045 12.093 6.47645C12.657 6.38245 13.221 6.57045 13.597 6.94645C13.597 6.94645 15.571 8.63845 17.451 7.41645C19.331 6.19445 18.673 5.16045 18.391 3.75045C18.297 3.28045 18.391 2.81045 18.485 2.43445C18.673 2.05845 18.861 1.68245 19.237 1.40045C19.613 1.11845 20.083 0.930452 20.647 1.02445C21.211 1.11845 21.681 1.40045 22.057 1.87045L29.147 10.3685" stroke="#EC6D88" stroke-width="2"/>
</svg>
