<svg width="53" height="53" viewBox="0 0 53 53" fill="none" xmlns="http://www.w3.org/2000/svg">
<mask id="mask0" mask-type="alpha" maskUnits="userSpaceOnUse" x="0" y="0" width="53" height="53">
<path fill-rule="evenodd" clip-rule="evenodd" d="M38.512 16.1979C37.5678 16.1979 36.8023 15.4325 36.8023 14.4883V1.70968C36.8023 0.765449 36.0369 0 35.0926 0H17.9068C16.9626 0 16.1971 0.765448 16.1971 1.70968V14.4883C16.1971 15.4325 15.4317 16.1979 14.4874 16.1979L1.70968 16.1979C0.765449 16.1979 0 16.9634 0 17.9076V35.0935C0 36.0377 0.765448 36.8031 1.70968 36.8031H14.4874C15.4317 36.8031 16.1971 37.5686 16.1971 38.5128V51.2903C16.1971 52.2346 16.9625 53 17.9068 53H35.0926C36.0369 53 36.8023 52.2346 36.8023 51.2903V38.5128C36.8023 37.5686 37.5678 36.8031 38.512 36.8031H51.2903C52.2346 36.8031 53 36.0377 53 35.0935V17.9076C53 16.9634 52.2346 16.1979 51.2903 16.1979L38.512 16.1979Z" fill="#E5F0DC"/>
</mask>
<g mask="url(#mask0)">
<path d="M-37.5014 11C-39.9014 9.8 7.16522 -5.83333 30.9986 -13.5L100.999 33.5L36.999 90C13.1655 64.1667 -35.1014 12.2 -37.5014 11Z" fill="#2861A3"/>
<path d="M29.4999 34.5004C6 27.9503 7.49966 0.501106 13.9997 -5.49933L45.8133 -20L68.4999 35.5004C60.3669 36.7106 50.6757 40.4026 29.4999 34.5004Z" fill="#218A6E"/>
<path d="M25.2884 32.7137C8.09419 46.6642 0.351002 85.3112 2.86692 95.8852L32.2915 116.144L87.2664 36.0754C87.6547 26.4786 51.788 11.2134 25.2884 32.7137Z" fill="#EC6D88"/>
</g>
</svg>
