<svg width="491" height="76" viewBox="0 0 491 76" fill="none" xmlns="http://www.w3.org/2000/svg">
<path d="M38.3116 45.8825C35.119 48.8927 31.0142 50.1698 26.1796 50.1698C14.5037 50.1698 10.3076 42.9635 10.3076 36.2134C10.3076 28.2774 16.1456 22.5307 24.1728 22.5307C30.1932 22.5307 33.1122 24.5375 34.4804 26.453H35.7575V16.2366C32.7473 15.5069 28.8249 15.0508 25.6323 15.0508C18.6085 15.0508 12.3144 17.0576 7.75354 20.7063C2.64532 24.8111 0 30.8315 0 38.0377C0 49.7137 10.855 58.9267 24.6289 58.9267C28.5513 58.9267 33.477 57.8321 37.217 56.2814L39.7711 45.8825H38.3116Z" fill="white"/>
<path d="M87.3855 50.8128C85.0139 51.3601 83.2807 50.7216 82.3685 49.9007C81.0003 48.6236 80.909 45.8871 80.909 42.0559V29.0117C80.909 24.542 79.7232 21.2582 77.3515 18.9777C74.5238 16.2412 70.419 14.9641 63.8513 15.0553C59.564 15.1466 55.0943 16.7885 53.4524 18.0655L51.1719 26.8225L52.449 27.0049C55.2768 23.6298 60.1113 22.5352 63.8513 22.6264C65.1283 22.6264 71.5136 22.8089 71.5136 27.0961C71.5136 30.38 67.8649 31.1097 61.662 32.2956C54.4558 33.6638 45.334 35.5794 45.334 45.3398C45.334 53.1845 52.0841 58.9313 60.2025 58.9313C62.483 58.9313 64.8547 58.5664 66.7702 58.1103L68.9595 49.627H67.7736C66.3141 50.9041 64.9459 51.4514 62.9391 51.4514C60.385 51.4514 55.2768 50.6304 55.2768 45.3398C55.2768 40.5964 59.3816 39.9579 63.6688 39.3194C66.7702 38.8633 69.3243 38.1335 71.4224 37.2213V48.6236C71.4224 57.3806 78.4462 58.84 84.7402 59.0225L87.9328 51.4514L87.3855 50.8128Z" fill="white"/>
<path d="M489.655 50.8128C487.283 51.3601 485.55 50.7216 484.638 49.9007C483.27 48.6236 483.179 45.8871 483.179 42.0559V29.0117C483.179 24.542 481.993 21.2582 479.621 18.9777C476.793 16.2412 472.688 14.9641 466.121 15.0553C461.834 15.1466 457.364 16.7885 455.722 18.0655L453.441 26.8225L454.719 27.0049C457.546 23.6298 462.381 22.5352 466.121 22.6264C467.398 22.6264 473.783 22.8089 473.783 27.0961C473.783 30.38 470.134 31.1097 463.932 32.2956C456.725 33.6638 447.604 35.5794 447.604 45.3398C447.604 53.1845 454.354 58.9313 462.472 58.9313C464.753 58.9313 467.124 58.5664 469.04 58.1103L471.229 49.627H470.043C468.584 50.9041 467.215 51.4514 465.209 51.4514C462.654 51.4514 457.546 50.6304 457.546 45.3398C457.546 40.5964 461.651 39.9579 465.938 39.3194C469.04 38.8633 471.594 38.1335 473.692 37.2213V48.6236C473.692 57.3806 480.716 58.84 487.01 59.0225L490.202 51.4514L489.655 50.8128Z" fill="white"/>
<path d="M162.181 56.2808C158.714 55.1862 158.258 51.8111 158.35 48.436C158.35 48.0712 158.35 33.8411 158.35 33.8411C158.35 20.9794 153.333 14.959 142.66 14.959C136.822 14.959 132.261 17.3306 129.342 21.8916C125.967 16.8746 122.227 14.959 116.389 14.959C110.916 14.959 108.088 16.7833 105.443 20.3408V14.959H104.257C102.98 16.0536 100.882 16.0536 99.0577 16.0536H92.7637V17.4219C95.9563 18.8814 96.1387 21.7091 96.1387 25.0842C96.1387 25.5403 96.1387 48.1624 96.1387 48.6185C96.23 51.9935 95.8651 54.6389 92.7637 56.372V57.7403H108.727V56.372C105.717 54.5476 105.443 51.9935 105.443 48.6185C105.443 48.1624 105.443 35.3918 105.443 35.3918C105.443 29.5539 107.267 22.5301 113.926 22.5301C119.126 22.5301 122.501 27.912 122.501 36.304C122.501 36.304 122.501 48.1624 122.501 48.6185C122.592 51.9935 122.227 54.6389 119.126 56.372V57.7403H135.18V56.372C132.079 54.6389 131.805 51.9935 131.805 48.6185C131.805 48.1624 131.805 34.8445 131.805 34.8445C131.805 23.8071 137.825 22.5301 140.744 22.5301C146.582 22.5301 148.863 26.4525 148.863 36.1216C148.863 36.1216 148.863 48.2536 148.863 48.7097C148.954 52.0848 148.589 54.7301 145.488 56.4632V57.8315H161.998V56.2808H162.181Z" fill="white"/>
<path d="M193.747 15.0508C189.369 15.0508 183.622 16.6015 180.156 20.0678V15.0508H178.97C177.693 16.0542 175.504 16.1454 173.953 16.1454H167.477V17.5137C170.487 19.1556 170.852 21.8009 170.852 25.176C170.852 25.6321 170.852 66.2242 170.852 66.6803C170.943 69.9641 170.578 72.6094 167.477 74.3426V75.7108H183.44V74.3426C180.338 72.6094 180.065 70.0553 180.065 66.6803C180.065 66.2242 180.065 36.6695 180.065 36.6695C180.065 33.2032 180.247 29.1896 182.619 26.7267C184.899 24.1726 188.001 22.8955 191.467 22.8955C200.771 22.8955 204.146 30.7403 204.146 37.4904C204.146 43.5108 202.596 50.8995 193.383 50.8995C190.099 50.8995 188.001 50.6259 184.99 48.3454L184.352 48.5278L185.447 57.1936C187.453 58.0145 191.011 58.8355 193.383 58.8355C205.515 58.8355 214.363 49.44 214.363 36.487C214.545 24.0814 205.788 15.0508 193.747 15.0508Z" fill="white"/>
<path d="M268.452 12.3144C271.644 12.3144 274.381 9.48668 274.381 6.11161C274.381 2.73654 271.736 0 268.452 0C265.35 0 262.066 2.28046 262.066 5.83797C262.066 9.4867 264.803 12.3144 268.452 12.3144Z" fill="white"/>
<path d="M276.756 56.3722C273.654 54.6391 273.38 51.9938 273.38 48.6187C273.38 48.1626 273.38 14.6855 273.38 14.6855H272.103C270.644 16.0538 268.637 16.0538 266.722 16.0538H260.701V17.4221C263.803 19.1552 264.076 21.7093 264.076 25.0844C264.076 25.5405 264.076 48.1626 264.076 48.6187C264.167 51.9938 263.803 54.6391 260.701 56.3722V57.7405H276.756V56.3722Z" fill="white"/>
<path d="M292.077 12.3144C295.269 12.3144 298.006 9.48668 298.006 6.11161C298.006 2.73654 295.361 0 292.077 0C288.975 0 285.691 2.28046 285.691 5.83797C285.691 9.4867 288.428 12.3144 292.077 12.3144Z" fill="white"/>
<path d="M300.381 56.3722C297.279 54.6391 297.005 51.9938 297.005 48.6187C297.005 48.1626 297.005 14.6855 297.005 14.6855H295.728C294.269 16.0538 292.262 16.0538 290.347 16.0538H284.326V17.4221C287.428 19.1552 287.701 21.7093 287.701 25.0844C287.701 25.5405 287.701 48.1626 287.701 48.6187C287.792 51.9938 287.428 54.6391 284.326 56.3722V57.7405H300.381V56.3722Z" fill="white"/>
<path d="M345.628 46.2471C341.979 49.7134 338.969 51.1729 333.587 50.5343C333.587 50.5343 324.83 49.5309 321.182 50.8992L344.716 17.4222V16.2363H311.695L307.225 27.3649H309.141C311.239 24.7196 315.617 23.0777 320.361 23.4426L329.118 24.0811L305.492 56.7372V57.923H343.713L347.361 46.3383H345.628V46.2471Z" fill="white"/>
<path d="M393.607 56.1902C390.597 54.6395 390.597 52.1766 390.688 48.8927C390.688 48.4366 390.688 15.0508 390.688 15.0508H389.411C387.951 16.3278 386.127 16.2366 384.211 16.2366C383.846 16.2366 377.917 16.2366 377.917 16.2366V17.6049C381.019 19.4293 381.292 21.8921 381.292 25.3584C381.292 25.8145 381.292 40.1358 381.292 40.1358C381.292 46.4298 377.461 50.8995 372.079 50.8995C365.694 50.8995 362.866 47.2508 362.866 38.5851V15.0508H361.589C360.221 16.2366 357.849 16.1454 356.481 16.1454H350.096V17.5137C353.288 19.1556 353.471 21.8921 353.471 25.2672C353.471 25.7233 353.471 40.0446 353.471 40.0446C353.471 52.7239 358.67 58.9267 369.434 58.9267C374.816 58.9267 378.282 57.4672 381.292 53.636V57.8321H393.972V56.3726L393.607 56.1902Z" fill="white"/>
<path d="M444.142 56.372C441.04 54.6389 440.766 52.0848 440.766 48.7097C440.766 48.2536 440.766 34.0236 440.766 33.6587C440.766 29.6451 440.949 25.4491 438.486 21.3443C435.476 16.5097 431.371 14.959 425.077 14.959C420.334 14.959 416.229 16.6009 412.945 20.3408V14.959H411.759C409.935 16.0536 407.928 16.0536 406.104 16.0536H400.266V17.4219C403.367 19.155 403.641 21.8003 403.641 25.1754C403.641 25.6315 403.641 48.1624 403.641 48.6185C403.732 51.9935 403.367 54.6389 400.266 56.372V57.7403H416.32V56.372C413.219 54.6389 412.945 52.0848 412.945 48.7097C412.945 48.2536 412.945 31.9255 412.945 31.9255C412.945 27.091 415.864 22.5301 421.976 22.1652C428.27 21.7091 431.371 25.1754 431.371 34.8445C431.371 34.8445 431.371 48.2536 431.371 48.7097C431.462 51.9935 431.097 54.6389 427.996 56.372V57.7403H444.05V56.372H444.142Z" fill="white"/>
<path d="M250.207 20.979C250.207 19.702 250.298 18.4249 250.481 17.1479L250.663 16.1445H239.261V4.74219L238.257 4.92463C235.795 5.38073 233.149 5.38073 230.595 4.92463L229.592 4.74219V16.1445H218.189L218.372 17.1479C218.554 18.4249 218.646 19.702 218.646 20.979C218.646 22.2561 218.554 23.5331 218.372 24.8102L218.189 25.8136H229.592V37.2158L230.595 37.0334C233.058 36.5773 235.703 36.5773 238.257 37.0334L239.261 37.2158V25.8136H250.663L250.481 24.8102C250.298 23.5331 250.207 22.2561 250.207 20.979Z" fill="white"/>
</svg>
