<svg width="656" height="102" viewBox="0 0 656 102" fill="none" xmlns="http://www.w3.org/2000/svg">
<path d="M51.1723 61.5634C46.9369 65.645 41.4189 67.349 34.9197 67.349C19.2823 67.349 13.712 57.6755 13.712 48.6204C13.712 38.0334 21.5276 30.35 32.2991 30.35C40.2962 30.35 44.2886 33.0844 46.1372 35.6404H47.8719V21.8854L47.1337 21.7162C43.0491 20.7812 38.6076 20.2891 34.2891 20.2891C24.9448 20.2891 16.4587 22.9804 10.3993 27.8679C3.59562 33.3582 0 41.3799 0 51.0687C0 66.7523 14.4963 79.0401 33.0004 79.0401C38.2754 79.0401 44.4086 77.8006 49.4068 75.7244L49.8528 75.5399L53.2269 61.5664H51.1723V61.5634Z" fill="black"/>
<path d="M116.84 68.1949C113.69 68.8931 111.313 68.0995 110.135 67.0138C108.295 65.319 108.154 61.6157 108.154 56.5652V39.0116C108.105 33.0199 106.551 28.6092 103.408 25.5272C99.6553 21.8486 94.1865 20.1261 85.2851 20.2922C79.5088 20.3999 73.5232 22.6575 71.4071 24.2969L68.3651 36.0404L70.1306 36.3233C73.9231 31.8603 80.4038 30.3993 85.3344 30.5224C87.0507 30.5654 95.6137 30.8084 95.6137 36.4464C95.6137 40.8694 90.6955 41.826 82.4523 43.3792C72.7727 45.2032 60.6387 47.7838 60.6387 60.8929C60.6387 71.406 69.6385 79.0371 80.4838 79.0371C81.3235 79.0371 84.953 78.911 87.5766 78.3297L89.2468 77.9206L92.1627 66.5955H90.594C88.5947 68.2872 86.7615 68.9915 84.1717 68.9915C80.7945 68.9915 73.9508 67.9242 73.9508 60.776C73.9508 54.4583 79.4042 53.634 85.1836 52.7574C89.2837 52.1361 92.7132 51.201 95.6106 49.9092V65.1498C95.6106 76.8933 104.309 78.7603 112.817 79.0402L113.466 79.0617L117.787 68.9116L116.84 68.1949Z" fill="black"/>
<path d="M216.192 75.3134C211.575 73.837 211.631 69.577 211.692 65.0648C211.698 64.5665 211.704 64.0713 211.704 63.5822V45.5672C211.704 28.3211 205.045 20.2871 190.749 20.2871C182.921 20.2871 176.791 23.5044 172.922 29.613C168.369 22.9262 163.411 20.2871 155.648 20.2871C148.38 20.2871 144.541 22.7847 141.035 27.4445V20.2902H139.42L139.168 20.4809C137.531 21.7081 134.858 21.8127 132.484 21.8127H124.047V23.6644L124.527 23.9381C128.621 26.2634 128.574 29.4623 128.51 33.8853C128.501 34.4512 128.491 35.0325 128.491 35.6293V63.5853C128.491 64.1789 128.501 64.7603 128.507 65.3293C128.571 69.82 128.621 73.068 124.527 75.3933L124.047 75.6671V77.5187H145.362V75.6825L144.904 75.4056C140.902 72.985 140.952 69.7861 141.016 65.36C141.025 64.7818 141.035 64.1912 141.035 63.5853V47.6034C141.035 39.7385 143.532 30.3635 152.372 30.3635C159.33 30.3635 163.826 37.6193 163.826 48.8491V63.5853C163.826 64.1789 163.836 64.7603 163.842 65.3293C163.906 69.82 163.956 73.068 159.862 75.3933L159.382 75.6671V77.5187H180.814V75.6671L180.334 75.3933C176.24 73.068 176.286 69.82 176.354 65.3293C176.363 64.7603 176.37 64.1789 176.37 63.5853V46.8375C176.37 32.0705 184.419 30.3635 188.331 30.3635C196.147 30.3635 199.164 35.617 199.164 48.4954V63.5853C199.164 64.1789 199.174 64.7603 199.18 65.3293C199.244 69.82 199.294 73.068 195.2 75.3933L194.72 75.6671V77.5187H216.853V75.5256L216.192 75.3134Z" fill="black"/>
<path d="M259.17 20.2891C253.369 20.2891 245.643 22.4052 240.937 27.0036V20.2891H239.31L239.051 20.4921C237.547 21.6732 234.659 21.8085 232.62 21.8085H223.949V23.6725L224.444 23.9431C228.523 26.17 228.477 29.4027 228.412 33.8811C228.403 34.4501 228.397 35.0314 228.397 35.6251V87.6801C228.397 88.2768 228.406 88.8581 228.412 89.4241C228.477 93.8502 228.523 97.0459 224.429 99.3712L223.949 99.645V101.497H245.381V99.645L244.902 99.3712C240.808 97.0459 240.854 93.8471 240.918 89.4241C240.928 88.8581 240.934 88.2768 240.934 87.6801V49.3001C240.934 44.6218 241.195 39.3499 244.345 35.9819C247.408 32.5892 251.524 30.796 256.245 30.796C268.755 30.796 273.193 41.3399 273.193 50.3674C273.193 58.426 271.083 68.3271 258.774 68.3271C254.381 68.3271 251.521 67.9118 247.596 64.9652L246.695 65.2451L248.184 76.8256C250.924 77.899 255.575 79.0371 258.798 79.0371C275.085 79.0371 286.905 66.4385 286.905 49.0787C286.905 32.3985 275.241 20.2891 259.17 20.2891Z" fill="black"/>
<path d="M334.699 28.2398C334.699 26.5143 334.838 24.7949 335.115 23.1216L335.336 21.7837H320.074V6.52148L318.736 6.74294C315.386 7.29659 311.846 7.29659 308.5 6.74294L307.162 6.52148V21.7837H291.896L292.118 23.1216C292.395 24.7918 292.533 26.5143 292.533 28.2398C292.533 29.9653 292.395 31.6878 292.118 33.3579L291.896 34.699H307.159V49.9612L308.497 49.7397C311.84 49.1861 315.386 49.1861 318.733 49.7397L320.071 49.9612V34.699H335.333L335.112 33.361C334.838 31.6878 334.699 29.9653 334.699 28.2398Z" fill="#004F25"/>
<path d="M655.149 67.9875C651.976 68.7198 649.657 67.8655 648.436 66.7671C646.605 65.0584 646.483 61.397 646.483 56.2709V38.8181C646.483 32.8378 644.897 28.444 641.724 25.3928C637.94 21.7314 632.448 20.0227 623.66 20.1448C617.924 20.2668 611.944 22.4637 609.747 24.1724L606.696 35.889L608.404 36.133C612.188 31.6173 618.657 30.1527 623.66 30.2747C625.369 30.2747 633.912 30.5188 633.912 36.2551C633.912 40.6488 629.031 41.6252 620.731 43.2118C611.09 45.0425 598.885 47.6055 598.885 60.6647C598.885 71.1608 607.916 78.8498 618.779 78.8498C621.83 78.8498 625.003 78.3616 627.566 77.7514L630.495 66.4009H628.909C626.956 68.1096 625.125 68.8419 622.44 68.8419C619.023 68.8419 612.188 67.7434 612.188 60.6647C612.188 54.3182 617.68 53.4638 623.416 52.6095C627.566 51.9993 630.983 51.0229 633.79 49.8024V65.0584C633.79 76.775 643.188 78.7277 651.609 78.9718L655.881 68.8419L655.149 67.9875Z" fill="black"/>
<path d="M359.186 16.4765C363.458 16.4765 367.119 12.693 367.119 8.17721C367.119 3.66143 363.58 0 359.186 0C355.036 0 350.643 3.05121 350.643 7.81108C350.643 12.693 354.304 16.4765 359.186 16.4765Z" fill="black"/>
<path d="M370.293 75.4243C366.143 73.1054 365.777 69.566 365.777 65.0502C365.777 64.44 365.777 19.6484 365.777 19.6484H364.068C362.116 21.4792 359.431 21.4792 356.868 21.4792H348.812V23.3099C352.962 25.6288 353.328 29.0461 353.328 33.5619C353.328 34.1721 353.328 64.44 353.328 65.0502C353.45 69.566 352.962 73.1054 348.812 75.4243V77.255H370.293V75.4243Z" fill="black"/>
<path d="M390.793 16.4765C395.065 16.4765 398.726 12.693 398.726 8.17721C398.726 3.66143 395.187 0 390.793 0C386.644 0 382.25 3.05121 382.25 7.81108C382.25 12.693 385.911 16.4765 390.793 16.4765Z" fill="black"/>
<path d="M401.9 75.4243C397.751 73.1054 397.385 69.566 397.385 65.0502C397.385 64.44 397.385 19.6484 397.385 19.6484H395.676C393.723 21.4792 391.038 21.4792 388.475 21.4792H380.42V23.3099C384.57 25.6288 384.936 29.0461 384.936 33.5619C384.936 34.1721 384.936 64.44 384.936 65.0502C385.058 69.566 384.57 73.1054 380.42 75.4243V77.255H401.9V75.4243Z" fill="black"/>
<path d="M462.443 61.8783C457.561 66.5162 453.534 68.4689 446.333 67.6146C446.333 67.6146 434.616 66.2721 429.734 68.1028L461.223 23.3112V21.7246H417.041L411.061 36.6144H413.624C416.431 33.0751 422.29 30.8782 428.636 31.3664L440.353 32.2207L408.742 75.9139V77.5005H459.88L464.762 62.0004H462.443V61.8783Z" fill="black"/>
<path d="M526.639 75.1823C522.611 73.1075 522.611 69.8122 522.733 65.4184C522.733 64.8082 522.733 20.1387 522.733 20.1387H521.024C519.072 21.8473 516.631 21.7253 514.068 21.7253C513.58 21.7253 505.646 21.7253 505.646 21.7253V23.556C509.796 25.997 510.162 29.2923 510.162 33.9301C510.162 34.5403 510.162 53.7018 510.162 53.7018C510.162 62.1231 505.036 68.1035 497.835 68.1035C489.292 68.1035 485.509 63.2216 485.509 51.627V20.1387H483.8C481.969 21.7253 478.796 21.6032 476.965 21.6032H468.422V23.434C472.694 25.6308 472.938 29.2923 472.938 33.808C472.938 34.4183 472.938 53.5798 472.938 53.5798C472.938 70.5445 479.894 78.8437 494.296 78.8437C501.497 78.8437 506.135 76.8909 510.162 71.7649V77.3791H527.127V75.4264L526.639 75.1823Z" fill="black"/>
<path d="M594.254 75.4254C590.104 73.1064 589.738 69.6891 589.738 65.1733C589.738 64.5631 589.738 45.5236 589.738 45.0354C589.738 39.6653 589.982 34.0511 586.687 28.559C582.659 22.0904 577.167 20.0156 568.746 20.0156C562.399 20.0156 556.907 22.2125 552.513 27.2164V20.0156H550.927C548.486 21.4802 545.801 21.4802 543.36 21.4802H535.549V23.3109C539.698 25.6298 540.065 29.1692 540.065 33.685C540.065 34.2952 540.065 64.441 540.065 65.0513C540.187 69.5671 539.698 73.1064 535.549 75.4254V77.2561H557.029V75.4254C552.88 73.1064 552.513 69.6891 552.513 65.1733C552.513 64.5631 552.513 42.7165 552.513 42.7165C552.513 36.248 556.419 30.1456 564.596 29.6574C573.018 29.0472 577.167 33.685 577.167 46.622C577.167 46.622 577.167 64.5631 577.167 65.1733C577.289 69.5671 576.801 73.1064 572.651 75.4254V77.2561H594.132V75.4254H594.254Z" fill="black"/>
</svg>
