<svg width="55" height="61" viewBox="0 0 55 61" fill="none" xmlns="http://www.w3.org/2000/svg">
<path d="M15.5156 6.073C18.7096 2.884 23.2086 1 27.9996 1C38.0156 1 45.9996 9.117 45.9996 18.973C45.9996 28.974 37.8706 36.946 27.9996 36.946" stroke="#EC6D88" stroke-width="2" stroke-linejoin="round"/>
<path d="M28 36.9457C17.984 36.9457 10 28.8287 10 18.9727" stroke="#2861A3" stroke-width="2" stroke-linejoin="round"/>
<path d="M10 18.9723C10 13.8993 12.177 9.26127 15.516 6.07227" stroke="#218A6E" stroke-width="2" stroke-linejoin="round"/>
<path d="M26.5005 20.4648H26.4785C26.4865 20.4648 26.4935 20.4688 26.5005 20.4688V20.4648Z" fill="#218A6E"/>
<path d="M28 6.30859V18.9746" stroke="#2861A3" stroke-width="2" stroke-linecap="round" stroke-linejoin="round"/>
<path d="M34.333 19.9727H27V17.9727H34.333C34.886 17.9727 35.333 18.4207 35.333 18.9727C35.333 19.5247 34.885 19.9727 34.333 19.9727Z" fill="#218A6E"/>
<path d="M10.8476 53.6624H4.75055V52.5314H10.8476V53.6624ZM5.80355 48.3714H9.66455V49.2814H5.80355V48.3714ZM11.1596 50.4124V47.2274H4.37355V50.4124H6.73955C6.68755 50.6724 6.60955 50.9454 6.54455 51.2054H3.28155V55.4304H4.75055V55.0014H10.8476V55.4304H12.3816V51.2054H8.07855C8.19555 50.9584 8.31255 50.6984 8.41655 50.4124H11.1596ZM11.4976 45.2774C11.8616 44.8484 12.2516 44.3284 12.6286 43.8344L10.9646 43.3144C10.7176 43.9384 10.2236 44.7184 9.80755 45.2774H7.67555L8.58555 44.9394C8.40355 44.4714 7.97455 43.7304 7.59755 43.2234L6.24555 43.6784C6.55755 44.1724 6.90855 44.8094 7.09055 45.2774H5.08855L5.50455 45.0954C5.28355 44.6144 4.77655 43.9254 4.34755 43.4314L3.00855 44.0164C3.30755 44.3934 3.63255 44.8614 3.86655 45.2774H2.28055V48.0464H3.69755V46.5904H11.8226V48.0464H13.3176V45.2774H11.4976ZM22.3266 46.6424C22.1836 46.9934 22.0276 47.3704 21.8716 47.6824H19.4406L19.6616 47.6434C19.5706 47.3704 19.4016 46.9804 19.2196 46.6424H22.3266ZM26.5256 52.4404V51.1664H21.4686V50.5944H25.3686V49.4764H21.4686V48.8914H25.9796V47.6824H23.4316C23.6266 47.3704 23.8346 47.0194 24.0426 46.6424H26.4866V45.3814H24.7966C25.0956 44.9264 25.4466 44.3414 25.8106 43.7434L24.1856 43.3534C24.0036 43.9254 23.6786 44.7054 23.3666 45.2384L23.8346 45.3814H22.6776V43.2624H21.2216V45.3814H20.2596V43.2624H18.8166V45.3814H17.6336L18.2706 45.1474C18.0886 44.6404 17.6596 43.8734 17.2826 43.3144L15.9566 43.7694C16.2426 44.2634 16.5806 44.8874 16.7626 45.3814H15.0206V46.6424H17.7376L17.5816 46.6684C17.7506 46.9674 17.9196 47.3574 18.0236 47.6824H15.5536V48.8914H19.9476V49.4764H16.2036V50.5944H19.9476V51.1664H14.9816V52.4404H18.7126C17.5946 53.1164 16.0606 53.6624 14.6046 53.9614C14.9296 54.2734 15.3716 54.8714 15.5926 55.2484C17.1396 54.8454 18.7386 54.0914 19.9476 53.1424V55.4044H21.4686V53.0644C22.6646 54.0784 24.2376 54.8584 25.8366 55.2614C26.0706 54.8454 26.5256 54.1954 26.8766 53.8574C25.3686 53.6234 23.8606 53.1164 22.7556 52.4404H26.5256ZM30.6986 45.4334V47.7214H29.5026V45.4334H30.6986ZM29.5026 51.5174V49.0734H30.6986V51.5174H29.5026ZM32.1416 44.0554H28.0726V54.0394H29.5026V52.8954H32.1416V44.0554ZM32.9086 51.8034C33.4936 52.4664 34.1566 53.3894 34.3906 53.9874L35.7166 53.2204C35.4436 52.5834 34.7416 51.7254 34.1436 51.0884L32.9086 51.8034ZM39.7856 48.4754V47.1234H36.8216V45.9794H39.4216V44.6274H36.8216V43.2624H35.3006V44.6274H32.8046V45.9794H35.3006V47.1234H32.3626V48.4754H36.9516V49.5934H32.3886V50.9324H36.9516V53.7274C36.9516 53.9094 36.8866 53.9614 36.6786 53.9614C36.4836 53.9614 35.7556 53.9614 35.1316 53.9354C35.3396 54.3514 35.5736 54.9624 35.6256 55.3914C36.5876 55.3914 37.2896 55.3524 37.7966 55.1314C38.3036 54.8974 38.4466 54.5074 38.4466 53.7664V50.9324H39.6946V49.5934H38.4466V48.4754H39.7856ZM44.8166 44.8744V45.5634H42.8146V44.8744H44.8166ZM42.8146 47.3444V46.6034H44.8166V47.3444H42.8146ZM46.2596 48.4494V43.7564H41.2806V55.4044H42.8146V48.4494H46.2596ZM48.6256 47.3704V46.6034H50.6926V47.3704H48.6256ZM50.6926 44.8744V45.5634H48.6256V44.8744H50.6926ZM45.6226 53.0644V52.2584H47.7676V53.0644H45.6226ZM47.7676 51.1534H45.6226V50.3734H47.7676V51.1534ZM52.2526 43.7564H47.1566V48.4754H50.6926V53.5584C50.6926 53.7664 50.6146 53.8444 50.3806 53.8444C50.2116 53.8574 49.7306 53.8574 49.2236 53.8444V49.2424L44.8556 49.2294V49.2424H44.2186V54.8584H45.6226V54.1954H48.8466C49.0026 54.5984 49.1456 55.0794 49.1846 55.4044C50.3026 55.4044 51.0566 55.3654 51.5636 55.1054C52.0836 54.8584 52.2526 54.4034 52.2526 53.5714V43.7564Z" fill="black"/>
</svg>
