<svg width="56" height="59" viewBox="0 0 56 59" fill="none" xmlns="http://www.w3.org/2000/svg">
<path d="M27.6047 17.9477C30.0033 17.9477 31.9477 16.0033 31.9477 13.6047C31.9477 11.2061 30.0033 9.26172 27.6047 9.26172C25.2061 9.26172 23.2617 11.2061 23.2617 13.6047C23.2617 16.0033 25.2061 17.9477 27.6047 17.9477Z" stroke="#218A6E" stroke-width="2" stroke-linejoin="round"/>
<path d="M15 13.605C15 6.643 20.643 1 27.605 1C34.567 1 40.21 6.643 40.21 13.605" stroke="#2861A3" stroke-width="2" stroke-linejoin="round"/>
<path d="M40.21 13.6055C40.21 20.3995 35.422 24.5155 32.263 28.6215C29.12 32.7065 27.605 35.4845 27.605 35.4845C27.605 35.4845 26.09 32.7065 22.947 28.6215C19.788 24.5155 15 20.3995 15 13.6055" stroke="#EC6D88" stroke-width="2" stroke-linejoin="round"/>
<path d="M9.79068 45.1624C10.9607 46.0204 12.4427 47.2294 13.0927 48.0614L14.4707 46.9954C13.7427 46.1764 12.2347 45.0324 11.1037 44.2654H14.3017V42.7574H9.32268V41.2494H7.73668V42.7574H2.82268V44.2654H11.0257L9.79068 45.1624ZM5.92968 44.3694C5.17568 45.3704 3.86268 46.3714 2.64068 46.9824C3.00468 47.2554 3.64168 47.8534 3.94068 48.1784C5.14968 47.4244 6.60568 46.2024 7.52868 44.9934L5.92968 44.3694ZM10.0897 46.5924C9.73868 47.5544 9.21868 48.3864 8.56868 49.0754C7.93168 48.3864 7.43768 47.5804 7.07368 46.6704L5.59168 47.1124C6.07268 48.2564 6.65768 49.2574 7.38568 50.1024C6.08568 50.9994 4.43468 51.5974 2.48468 51.9744C2.78368 52.3254 3.29068 53.0534 3.45968 53.4304C5.42268 52.9494 7.12568 52.2344 8.52968 51.2074C9.84268 52.2734 11.5197 53.0014 13.6517 53.4044C13.8597 52.9754 14.3147 52.2864 14.6527 51.9354C12.6507 51.6234 11.0257 51.0124 9.76468 50.1154C10.5837 49.2834 11.2467 48.2694 11.7537 47.0734L10.0897 46.5924ZM22.6997 45.6304V46.3324H21.2047V45.6304H22.6997ZM25.6117 46.3324H24.0777V45.6304H25.6117V46.3324ZM24.0777 48.1394V47.4114H25.6117V48.1394H24.0777ZM21.2047 48.1394V47.4114H22.6997V48.1394H21.2047ZM21.2047 49.2574H22.6997V51.1554H24.0777V49.2574H25.6117V49.8554C25.6117 49.9854 25.5727 50.0374 25.4167 50.0504C25.2867 50.0504 24.8317 50.0504 24.4287 50.0374C24.5977 50.3624 24.7537 50.8694 24.8057 51.2464C25.5857 51.2464 26.1447 51.2464 26.5607 51.0254C26.9767 50.8174 27.0937 50.4924 27.0937 49.8684V44.5124H25.5207C25.2997 44.3824 25.0267 44.2524 24.7407 44.1094C25.5857 43.5894 26.4047 42.9654 27.0547 42.3544L26.1317 41.6134L25.8327 41.6914H19.8657V42.8614H24.4937C24.1687 43.0954 23.8177 43.3424 23.4537 43.5504C22.9207 43.3164 22.3747 43.1084 21.9197 42.9394L20.9187 43.7714C21.4517 43.9794 22.0757 44.2394 22.6607 44.5124H19.7487V51.2074H21.2047V49.2574ZM19.0337 43.5374C18.5657 42.9134 17.5647 42.0814 16.7717 41.5354L15.7057 42.5234C16.4987 43.1214 17.4737 44.0184 17.8767 44.6424L19.0337 43.5374ZM18.6437 46.3064H15.5107V47.7234H17.1617V50.5574C16.5637 50.9994 15.9007 51.4284 15.3417 51.7404L16.0567 53.2874C16.7847 52.7414 17.3957 52.2344 17.9937 51.7274C18.7737 52.7284 19.8007 53.1054 21.3607 53.1704C22.9467 53.2354 25.7027 53.2094 27.3017 53.1314C27.3667 52.7024 27.6007 51.9874 27.7827 51.6234C26.0017 51.7664 22.9207 51.8054 21.3737 51.7404C20.0477 51.6884 19.1507 51.3244 18.6437 50.4534V46.3064ZM33.2297 45.5784H36.2717C36.0507 45.9554 35.7517 46.2934 35.2967 46.5664C34.4647 46.3584 33.6327 46.1764 32.8787 46.0334L33.2297 45.5784ZM40.4577 50.4794V49.2054H35.2837V48.3214H34.0747C34.6337 48.1914 35.1147 48.0354 35.5307 47.8534C36.8047 48.2174 37.9747 48.6074 38.7547 48.9454L39.6777 47.8534C38.9497 47.5804 37.9877 47.2814 36.9347 46.9824C37.3767 46.5924 37.7017 46.1244 37.9357 45.5784H40.2237V44.3694H34.1527C34.3087 44.1614 34.4517 43.9534 34.5947 43.7584L33.4117 43.4074H38.6377V44.1224H40.1327V42.1334H35.3227V41.2754H33.7757V42.1334H29.0047V44.1224H30.4347V43.4074H33.0997C32.8917 43.7064 32.6447 44.0314 32.3977 44.3694H28.9137V45.5784H31.4747C31.1107 46.0204 30.7727 46.4364 30.4607 46.7744L31.9297 47.1774L32.0987 46.9824C32.4887 47.0604 32.9047 47.1644 33.3207 47.2554C32.3197 47.4764 31.0067 47.6194 29.2517 47.7104C29.4467 48.0094 29.6937 48.5424 29.7587 48.9064C31.3837 48.7894 32.6967 48.6334 33.7497 48.3994V49.2054H28.6927V50.4794H32.6577C31.5527 51.1814 29.9277 51.7534 28.3677 52.0264C28.6927 52.3254 29.1087 52.8974 29.3167 53.2744C30.9287 52.8844 32.5537 52.1304 33.7497 51.1554V53.3914H35.2837V51.0774C36.5187 52.0784 38.1957 52.8714 39.8207 53.2614C40.0417 52.8714 40.4707 52.2734 40.8087 51.9484C39.2357 51.7014 37.6107 51.1554 36.4667 50.4794H40.4577ZM51.3777 44.9284V49.6214C50.6627 48.7244 49.2717 47.3984 48.1667 46.3974C48.2707 45.8904 48.3227 45.4094 48.3487 44.9284H51.3777ZM43.7857 44.9284H46.7497C46.6847 46.5274 46.2427 48.4514 43.7857 49.7254V44.9284ZM52.9117 43.4204H48.3617V41.2624H46.7627V43.4204H42.2387V53.4304H43.7857V49.7644C44.1627 50.0504 44.6437 50.5964 44.8647 50.9084C46.2817 50.0764 47.1527 49.0104 47.6597 47.9184C48.6087 48.8674 49.5837 49.9204 50.1037 50.6354L51.3777 49.6474V51.5974C51.3777 51.8314 51.2997 51.8964 51.0527 51.9094C50.8057 51.9094 49.9347 51.9224 49.1677 51.8834C49.3887 52.2864 49.6227 52.9754 49.6747 53.4174C50.8317 53.4174 51.6637 53.3914 52.1967 53.1444C52.7427 52.8974 52.9117 52.4684 52.9117 51.6364V43.4204Z" fill="black"/>
</svg>
