<svg width="55" height="53" viewBox="0 0 55 53" fill="none" xmlns="http://www.w3.org/2000/svg">
<path d="M11 24.774V1" stroke="#2861A3" stroke-width="2" stroke-linecap="square"/>
<path d="M44.5684 1V24.774" stroke="#218A6E" stroke-width="2" stroke-linecap="square" stroke-linejoin="round"/>
<path d="M11 1H44.568" stroke="#EC6D88" stroke-width="2" stroke-linecap="square"/>
<path d="M21.01 24.7734H11" stroke="#2861A3" stroke-width="2"/>
<path d="M43.7979 24.8041L32.8379 12.2051" stroke="#218A6E" stroke-width="2" stroke-linejoin="round"/>
<path d="M11.459 24.8041L22.419 12.2051" stroke="#2861A3" stroke-width="2"/>
<path d="M44.8898 1.19141L27.7798 16.6514L10.6738 1.23241" stroke="#EC6D88" stroke-width="2"/>
<path d="M44.5855 24.7734H21.0215" stroke="#218A6E" stroke-width="2" stroke-linejoin="round"/>
<path d="M6.81352 35.7174H5.01952C5.05852 35.9514 5.11052 36.5884 5.11052 36.8614C5.11052 37.0824 5.11052 37.4594 5.09752 37.9144C4.83752 37.9274 4.57752 37.9404 4.34352 37.9404C3.87552 37.9404 3.31652 37.9274 2.54952 37.8364L2.57552 39.4094C3.01752 39.4614 3.52452 39.4744 4.39552 39.4744C4.60352 39.4744 4.83752 39.4614 5.08452 39.4484C5.08452 39.8124 5.08452 40.1764 5.08452 40.5404C5.08452 40.8394 5.08452 41.1514 5.09752 41.4634C3.49852 42.1524 2.19852 43.3354 2.19852 44.4664C2.19852 45.8444 3.97952 46.9364 5.24052 46.9364C6.09852 46.9364 6.67052 46.5074 6.67052 44.8954C6.67052 44.4534 6.64452 43.4394 6.61852 42.4124C7.41152 42.1784 8.25652 42.0484 9.06252 42.0484C10.1935 42.0484 10.9735 42.5684 10.9735 43.4524C10.9735 44.4014 10.1415 44.9214 9.08852 45.1164C8.63352 45.1944 8.07452 45.2074 7.48952 45.2074L8.08752 46.8844C8.62052 46.8454 9.19252 46.8064 9.79052 46.6764C11.8575 46.1564 12.6635 44.9994 12.6635 43.4654C12.6635 41.6714 11.0905 40.6314 9.08852 40.6314C8.37352 40.6314 7.47652 40.7484 6.59252 40.9694C6.59252 40.8004 6.59252 40.6444 6.59252 40.4884C6.59252 40.1114 6.59252 39.7084 6.60552 39.3184C7.45052 39.2144 8.34752 39.0844 9.08852 38.9154L9.04952 37.3034C8.37352 37.4984 7.51552 37.6674 6.65752 37.7714C6.67052 37.4464 6.68352 37.1344 6.69652 36.8484C6.72252 36.5104 6.77452 35.9514 6.81352 35.7174ZM10.5185 37.1214L9.80352 38.3824C10.6095 38.7724 12.3125 39.7474 12.9365 40.2804L13.7165 38.9544C13.0275 38.4604 11.5195 37.6024 10.5185 37.1214ZM3.79752 44.4014C3.79752 43.9464 4.33052 43.4134 5.12352 42.9844C5.14952 43.6864 5.16252 44.2844 5.16252 44.6094C5.16252 45.0514 4.98052 45.1554 4.74652 45.1554C4.40852 45.1554 3.79752 44.8044 3.79752 44.4014ZM18.7345 36.9394V37.6414H16.7455V36.9394H18.7345ZM16.7455 39.4224V38.6814H18.7345V39.4224H16.7455ZM20.1775 40.5924V35.7564H15.2115V47.4044H16.7455V40.5924H20.1775ZM21.6725 42.7634V44.2974H19.5275V42.7634H21.6725ZM23.1155 45.5714V41.4894H18.0845V46.2994H19.5275V45.5714H23.1155ZM22.5435 39.4354V38.6814H24.5975V39.4354H22.5435ZM24.5975 36.9264V37.6414H22.5435V36.9264H24.5975ZM26.1575 35.7564H21.0745V40.6054H24.5975V45.5324C24.5975 45.7664 24.5065 45.8444 24.2595 45.8444C24.0125 45.8574 23.1285 45.8704 22.3745 45.8184C22.5955 46.2344 22.8425 46.9624 22.8945 47.4044C24.0905 47.4044 24.9095 47.3654 25.4425 47.1054C25.9885 46.8584 26.1575 46.4164 26.1575 45.5584V35.7564ZM36.2325 43.4524V45.5714H31.0975V43.4524H36.2325ZM29.5765 47.4174H31.0975V46.9364H36.2325V47.4174H37.8185V42.0874H29.5765V47.4174ZM31.0195 39.4354C32.0855 38.5904 32.9955 37.6674 33.6065 36.7964C34.2305 37.6544 35.1925 38.5904 36.2715 39.4354H31.0195ZM32.7355 35.2754C31.7605 36.8614 29.6805 38.8244 27.4445 39.9034C27.7825 40.2284 28.2115 40.7874 28.4195 41.1644C29.1085 40.7874 29.7975 40.3584 30.4345 39.8904V40.8004H36.9085V39.9034C37.5585 40.3714 38.2345 40.8004 38.8975 41.1384C39.1705 40.6574 39.5215 40.1504 39.8985 39.7474C37.8315 38.9154 35.7255 37.2644 34.3345 35.2754H32.7355ZM50.0905 36.0684H48.3485C48.3875 36.3284 48.4395 36.9394 48.4395 37.2644V38.7334C47.2565 38.8374 45.9955 38.9544 44.8905 39.0584C44.8905 38.5514 44.9035 38.1094 44.9035 37.8104C44.9035 37.2644 44.9165 36.9004 44.9815 36.4584H43.1485C43.2135 36.9264 43.2525 37.3684 43.2525 37.9014C43.2525 38.1224 43.2525 38.6034 43.2525 39.2144C42.8365 39.2534 42.4985 39.2794 42.2645 39.3054C41.6015 39.3704 41.0035 39.3964 40.6265 39.3964L40.8085 41.0604C41.1465 41.0084 41.9525 40.8784 42.3685 40.8264C42.5895 40.8004 42.8885 40.7744 43.2395 40.7354C43.2395 41.9444 43.2395 43.2054 43.2525 43.7644C43.3175 46.0134 43.7205 46.7154 47.0875 46.7154C48.3225 46.7154 49.9215 46.6114 50.7925 46.5074L50.8575 44.7394C49.8825 44.9084 48.2445 45.0644 46.9705 45.0644C45.0205 45.0644 44.9035 44.7784 44.8775 43.5044C44.8515 42.9454 44.8645 41.7494 44.8775 40.5534C45.9825 40.4364 47.2565 40.3194 48.4135 40.2284C48.4005 40.8524 48.3615 41.4504 48.3095 41.8014C48.2835 42.0484 48.1665 42.1004 47.9065 42.1004C47.6465 42.1004 47.1135 42.0224 46.7105 41.9314L46.6715 43.3744C47.1265 43.4394 48.1665 43.5694 48.6345 43.5694C49.2975 43.5694 49.6225 43.4004 49.7655 42.7114C49.8695 42.1654 49.9215 41.0994 49.9605 40.1114C50.3375 40.0854 50.6755 40.0724 50.9615 40.0594C51.2995 40.0464 51.9885 40.0334 52.2095 40.0464V38.4474C51.8325 38.4864 51.3255 38.5124 50.9615 38.5384C50.6625 38.5514 50.3375 38.5774 49.9865 38.6034C49.9995 38.1744 49.9995 37.7064 50.0125 37.1994C50.0255 36.8484 50.0645 36.2764 50.0905 36.0684Z" fill="black"/>
</svg>
